<?xml version="1.0" standalone="no"?>
<!DOCTYPE svg PUBLIC "-//W3C//DTD SVG 1.1//EN" "http://www.w3.org/Graphics/SVG/1.1/DTD/svg11.dtd" >
<!--
2013-9-30: Created.
-->
<svg>
<metadata>
Created by iconfont
</metadata>
<defs>

<font id="iconfont" horiz-adv-x="1024" >
  <font-face
    font-family="iconfont"
    font-weight="500"
    font-stretch="normal"
    units-per-em="1024"
    ascent="896"
    descent="-128"
  />
    <missing-glyph />
    
    <glyph glyph-name="shezhi" unicode="&#59089;" d="M606.6002-122.3466H421.39599214899323l-0.044 8.9349c-0.2019 41.4619-16.2077 80.4015-45.0693 109.6447-28.8307 29.2102-67.1013 45.2983-107.7625 45.2983-26.8969 0-53.3141-7.1961-76.3934-20.8089l-7.845-4.6269L91.7287 178.2226l7.6291 4.496c35.4345 20.8818 60.8103 54.3761 71.4536 94.3121 10.6462 39.9439 5.2896 81.6037-15.0824 117.3065-13.4934 23.656-33.003 43.2837-56.4191 56.7645l-7.7541 4.464 92.5961 162.1611 7.825-4.5559c23.4811-13.6717 50.0981-20.8978 76.974-20.8978 26.4342 0 52.5436 6.9113 75.506 19.9874 23.649 13.4669 43.3534 33.2085 56.9828 57.0923 13.5554 23.7079 20.6049 50.6986 20.391 78.0611l-0.071 9.0469 185.2652 0.029v-8.979911619921694c0-85.9048 68.5724-155.7934 152.8598-155.7934 27.0118 0 53.5519 7.2781 76.7512 21.0457l7.854 4.6608 92.5731-162.183-7.6621-4.487c-73.4103-42.9939-98.8491-138.0184-56.7089-211.8264 13.4135-23.559 32.7881-43.1158 56.0324-56.5666l7.7251-4.471L843.9033 15.7507l-7.82 4.5279c-23.3881 13.5438-49.8863 20.703-76.6273 20.703-26.4312 0-52.5406-6.9123-75.507-19.9894-23.649-13.4669-43.3554-33.2055-56.9868-57.0823-13.4135-23.557-20.467-50.2729-20.389-77.2526L606.6002-122.3466zM439.0448-104.3898h149.78273817851846c1.3431 27.0177 9.0622 53.5337 22.5337 77.1927 15.2323 26.6799 37.2573 48.735 63.7015 63.7927 25.6687 14.6161 54.8511 22.3419 84.3933 22.3419 26.9089 0 53.5829-6.4756 77.6906-18.7983l74.9743 131.3539c-22.6196 14.747-41.5356 34.8364-55.03 58.5383-45.5171 79.7209-20.3371 181.6448 55.6826 231.532l-74.9503 131.31c-23.9987-12.5305-50.7557-19.116-77.9394-19.116-91.229 0-165.9834 73.1214-170.5925 164.7703l-149.6698-0.023c-1.2232-27.4094-8.9593-54.2242-22.5886-78.0611-15.2203-26.6709-37.2453-48.731-63.6905-63.7898-25.6657-14.6141-54.8471-22.3399-84.3923-22.3399-27.0528 0-53.8567 6.5396-78.0683 18.9861l-74.9783-131.308c22.7905-14.783 41.8384-34.9463 55.4208-58.7572 22.7275-39.83 28.7077-86.2925 16.8373-130.8293-11.0989-41.6428-36.5787-77.0108-72.1691-100.4699l74.9763-131.336c23.8728 12.3816 50.4959 18.8872 77.5497 18.8872 45.5021 0 88.3118-17.9858 120.5433-50.6417C419.1564-21.6439 436.7133-61.5689 439.0448-104.3898zM514.3259 133.7837c-99.9674 0-181.2957 82.2163-181.2957 183.2727 0 101.0575 81.3293 183.2747 181.2957 183.2747 99.9674 0 181.2967-82.2173 181.2967-183.2747C695.6226 216 614.2933 133.7837 514.3259 133.7837zM514.3259 482.3744c-90.0647 0-163.3381-74.1607-163.3381-165.3179 0-91.1552 73.2734-165.3149 163.3381-165.3149 90.0657 0 163.3391 74.1597 163.3391 165.3149C677.665 408.2126 604.3916 482.3744 514.3259 482.3744z"  horiz-adv-x="1000" />

    
    <glyph glyph-name="shang" unicode="&#58880;" d="M952.2933 412.4129 678.728329 412.4129l0-437.685249L350.451113-25.272349 350.451113 412.412872 76.8861 412.412872 514.5897 850.0981 952.2933 412.4129z"  horiz-adv-x="1000" />

    
    <glyph glyph-name="xia" unicode="&#58881;" d="M76.8861 412.4129l273.565013 0L350.451113 850.098121 678.728329 850.098121l0-437.685249 273.565013 0L514.5897-25.2724 76.8861 412.4129z"  horiz-adv-x="1000" />

    
    <glyph glyph-name="fanhui" unicode="&#58882;" d="M362.4585 409.0182 748.0193 22.857 701.0671-24.0932 315.3035 361.6533 315.3035 361.6533 270.0073 406.9476 713.77 850.6917 759.0662 805.3974Z"  horiz-adv-x="1000" />

    
    <glyph glyph-name="jinggao" unicode="&#58883;" d="M404.6712 220.8428l54.6452-55.3525-54.6452-165.8745 164.0215 165.8745-54.6452 55.3525 54.6452 165.8785L404.6712 220.8428zM760.0888 718.5653c-9.1252 0-18.0675-0.7055-27.0108-1.9457C682.0655 786.9379 601.4639 829.1823 514.0476 829.1823c-87.5033 0-168.009-42.2444-219.1164-112.5637-8.9433 1.2412-17.8866 1.9457-26.9169 1.9457-105.5708 0-191.3961-86.8811-191.3961-193.5977 0-106.7176 85.8243-193.5977 191.3961-193.5977 23.3791 0 46.2296 4.428 67.8348 12.7524 20.9906-18.5085 44.8195-32.8567 69.8845-43.9262l42.5099 42.9499c-40.0275 13.1111-75.368 36.7571-101.7652 68.9043-22.2278-15.7663-49.2396-25.3278-78.465-25.3278-75.5499 0-136.7509 61.903-136.7509 138.2453 0 76.3422 61.201 138.3362 136.7509 138.3362 18.4233 0 35.9551-3.8094 51.9819-10.5379 36.2219 71.5555 109.0305 121.0649 194.0514 121.0649 84.9339 0 157.7425-49.5094 193.9644-121.0649 16.0268 6.7284 33.6536 10.5379 52.0758 10.5379 75.4639 0 136.656-61.994 136.656-138.3362 0-76.3432-61.192-138.2453-136.656-138.2453-29.3113 0-56.2442 9.5605-78.559 25.3278-17.7137-21.6093-39.7687-39.1445-64.2111-52.7832l-23.0243-69.6997c35.6863 11.3383 69.2539 29.2242 97.8657 54.556 21.6132-8.3244 44.5506-12.7524 67.9297-12.7524 105.4848 0 191.3961 86.8801 191.3961 193.5977C951.4839 631.6842 865.5736 718.5653 760.0888 718.5653z"  horiz-adv-x="1000" />

    
    <glyph glyph-name="dianhua" unicode="&#58884;" d="M881.4715 170.2062c0-137.8949-63.2146-137.6143-368.4588-137.6143-305.2237 0-368.4393-0.2806-368.4393 137.6143 0 150.5034 164.9592 450.7853 368.4393 450.7853C716.5082 620.9915 881.4715 320.7086 881.4715 170.2062zM514.09 556.4539c-86.4614 0-156.545-70.5014-156.545-157.4707 0-86.9796 70.0836-157.4707 156.545-157.4707 86.4492 0 156.5348 70.4911 156.5348 157.4707C670.6258 485.9525 600.5391 556.4539 514.09 556.4539zM185.9748 440.5371c64.1761 103.3472 175.1153 213.6044 326.2689 213.6044 151.1148 0 269.2628-119.3206 322.8088-212.6899 27.6726-46.3329 80.812-41.428 103.9739 0 14.8849 31.0016 61.396 290.687-426.7827 290.687C18.5856 731.479 69.5962 463.828 86.9294 441.4505 117.631 394.4991 175.4737 418.4361 185.9748 440.5371z"  horiz-adv-x="1024" />

    
    <glyph glyph-name="guanbi" unicode="&#58885;" d="M964.351 718.2868c2.7791-2.7791 4.4995-6.6191 4.4984-10.8605 0-4.2414-1.7193-8.0814-4.4984-10.8605L667.5569 399.7583l295.3175-295.3288c2.7791-2.7802 4.4984-6.6202 4.4984-10.8605s-1.7183-8.0814-4.4984-10.8605L843.2855-36.8937c-2.7791-2.7802-6.6191-4.4995-10.8605-4.4995s-8.0824 1.7193-10.8616 4.4995L526.2182 258.4474 232.3528-35.4191c-2.7791-2.7791-6.6191-4.4995-10.8605-4.4995s-8.0814 1.7203-10.8605 4.4995L91.0438 84.1697c-2.7791 2.7791-4.4984 6.6191-4.4984 10.8605s1.7193 8.0824 4.4984 10.8605l293.8655 293.8655L89.5662 695.1004c-2.7791 2.7791-4.4995 6.6202-4.4984 10.8616 0 4.2424 1.7193 8.0824 4.5005 10.8616L209.1807 836.4124c2.7802 2.7791 6.6202 4.4984 10.8605 4.4984 4.2414 0 8.0814-1.7193 10.8605-4.4995L526.2182 541.0816 823.039 837.888c2.7802 2.7791 6.6202 4.4984 10.8616 4.4984 4.2414 0 8.0814-1.7193 10.8605-4.4995L964.351 718.2868z"  horiz-adv-x="1024" />

    
    <glyph glyph-name="arrow-left" unicode="&#58886;" d="M338.746 749.254l-320-320c-24.994-24.992-24.994-65.516 0-90.508l320-320c24.994-24.992 65.516-24.992 90.51 0 24.996 24.992 24.996 65.516 0 90.508L218.508 320 960 320c35.346 0 64 28.652 64 64 0 35.346-28.654 64-64 64L218.508 448l210.746 210.746C441.75 671.242 448 687.622 448 704c0 16.376-6.248 32.758-18.744 45.254C404.26 774.248 363.74 774.248 338.746 749.254z"  horiz-adv-x="1024" />

    
    <glyph glyph-name="arrow-up" unicode="&#58887;" d="M877.254 557.254l-320 320c-24.992 24.994-65.516 24.994-90.508 0l-320-320c-24.992-24.994-24.992-65.516 0-90.51 24.992-24.996 65.516-24.996 90.508 0L448 677.494 448-64c0-35.344 28.652-64 64-64 35.346 0 64 28.656 64 64L576 677.494l210.746-210.746C799.242 454.25 815.622 448 832 448c16.376 0 32.758 6.248 45.254 18.744C902.248 491.742 902.248 532.26 877.254 557.254z"  horiz-adv-x="1024" />

    
    <glyph glyph-name="shanchu" unicode="&#58888;" d="M640.512 679.55712l0 76.8-258.048 0 0-76.8-171.008 0 0-73.728 601.088 0 0 73.728L640.512 679.55712zM239.104 555.65312l44.032-536.576 457.728 0 44.032 536.576L239.104 555.65312zM426.496 121.47712l-70.656 0 0 342.016 70.656 0L426.496 121.47712zM546.304 121.47712l-69.632 0 0 342.016 69.632 0L546.304 121.47712zM670.208 121.47712l-72.704 0 0 342.016 72.704 0L670.208 121.47712z"  horiz-adv-x="1024" />

    
    <glyph glyph-name="shezhi1" unicode="&#59090;" d="M-49.090984-71.816448M1040.852568-71.816448M45.076056-40.672512M403.050072 301.104896c0 36.704256 12.394496 67.21024 37.6576 92.474368 25.264128 25.264128 55.771136 37.658624 92.475392 37.658624 36.703232 0 67.211264-12.394496 92.475392-37.658624 25.265152-25.264128 37.6576-55.770112 37.6576-92.474368 0-36.70528-12.393472-67.689472-37.6576-92.952576-25.264128-25.263104-55.77216-37.656576-92.475392-37.656576-36.704256 0-67.331072 12.274688-92.475392 37.656576C415.32476 233.773824 403.050072 264.8768 403.050072 301.104896zM219.062872 216.256256c7.626752-27.169792 19.067904-53.865472 32.89088-78.651392l-85.801984-105.347072 97.241088-97.241088 105.335808 85.801984c24.787968-13.824 51.958784-25.264128 79.128576-33.368064l14.30016-134.421504 140.142592 0 14.30016 134.421504c27.170816 8.103936 52.912128 19.544064 79.127552 33.368064l104.869888-85.801984 98.195456 97.241088-86.278144 105.347072c13.346816 24.78592 25.263104 51.480576 33.364992 78.651392l134.424576 14.777344L980.304472 371.176192l-134.424576 14.30016c-8.101888 27.170816-20.018176 52.434944-33.364992 78.651392l86.278144 105.346048-98.195456 98.195456-104.869888-86.278144c-26.692608 13.34784-51.956736 25.264128-79.127552 33.36704L602.301016 749.181696 462.158424 749.181696l-14.30016-134.423552c-28.12416-8.102912-54.340608-20.020224-79.128576-33.36704l-105.335808 86.278144-97.241088-98.195456 85.801984-105.346048c-13.34784-26.217472-24.787968-51.480576-32.89088-78.651392L84.16316 371.176192l0-140.142592L219.062872 216.256256zM1021.298264-40.672512"  horiz-adv-x="1064" />

    
    <glyph glyph-name="rili" unicode="&#58889;" d="M69.89312-15.096832M692.867072 457.970688l104.2176 0 0-104.211456-104.2176 0 0 104.211456ZM692.867072 301.652992l104.2176 0 0-104.669184-104.2176 0 0 104.669184ZM692.867072 145.339392l104.2176 0 0-104.672256-104.2176 0 0 104.672256ZM683.27424 726.724608l62.618624 0 0-145.806336-62.618624 0 0 145.806336ZM537.468928 457.970688l103.759872 0 0-104.211456-103.759872 0 0 104.211456ZM537.468928 301.652992l103.759872 0 0-104.669184-103.759872 0 0 104.669184ZM537.468928 145.339392l103.759872 0 0-104.672256-103.759872 0 0 104.672256ZM381.154304 457.970688l104.20736 0 0-104.211456-104.20736 0 0 104.211456ZM381.154304 301.652992l104.20736 0 0-104.669184-104.20736 0 0 104.669184ZM381.154304 145.339392l104.20736 0 0-104.672256-104.20736 0 0 104.672256ZM269.633536 726.724608l62.609408 0 0-145.806336-62.609408 0 0 145.806336ZM225.754112 457.970688l103.745536 0 0-104.211456-103.745536 0 0 104.211456ZM225.754112 301.652992l103.745536 0 0-104.669184-103.745536 0 0 104.669184ZM225.754112 145.339392l103.745536 0 0-104.672256-103.745536 0 0 104.672256ZM123.370496-17.840128c0-24.226816 20.10624-44.336128 44.336128-44.336128l687.42656 0c24.219648 0 44.336128 20.109312 44.336128 44.336128l0 620.6976c0 24.229888-20.11648 44.336128-44.336128 44.336128l-62.618624 0 0 90.957824c0 16.002048-14.169088 29.709312-30.17216 29.709312L669.105152 767.860736c-16.003072 0-29.252608-13.707264-29.252608-29.709312l0-90.957824L382.068736 647.1936l0 90.957824c0 16.002048-13.71648 29.709312-29.710336 29.709312l-99.18464 0c-15.992832 0-29.252608-13.707264-29.252608-29.709312l0-90.957824-56.214528 0c-24.229888 0-44.336128-20.10624-44.336128-44.336128L123.370496-17.840128zM952.485888-15.096832"  horiz-adv-x="1024" />

    
    <glyph glyph-name="QQ" unicode="&#58890;" d="M971.464704 227.341312 968.998912 244.979712 965.843968 262.185984 963.337216 271.0272 960.917504 280.430592 957.71648 289.401856 954.430464 299.387904 950.668288 308.791296 946.562048 318.454784 939.254784 334.234624 932.769792 348.1344 926.285824 360.562688 920.62208 372.151296 914.138112 382.698496 909.382656 392.383488 899.309568 406.84544 886.64064 426.105856 883.70176 430.861312 882.707456 432.892928 882.707456 434.49344 884.825088 440.999936 887.763968 446.792704 890.314752 458.227712 891.742208 464.130048 891.742208 470.22592 892.478464 475.132928 892.478464 480.06144 891.742208 485.72416 890.92096 490.350592 889.061376 499.73248 886.64064 508.854272 884.435968 517.220352 880.97792 525.348864 877.08672 532.135936 874.015744 538.512384 870.601728 544.586752 865.240064 553.536512 863.25248 556.71296 862.646272 559.479808 860.182528 576.838656 858.58304 588.274688 856.767488 602.432512 853.957632 617.06752 849.547264 633.841664 847.040512 643.245056 845.049856 651.200512 842.284032 660.452352 839.171072 670.287872 836.058112 679.409664 832.079872 689.22368 823.953408 708.182016 819.15392 717.15328 813.359104 727.442432 807.913472 736.26112 802.465792 746.248192 794.769408 755.501056 788.286464 764.47232 780.374016 773.72416 772.332544 782.11072 764.203008 790.216704 754.562048 798.626816 749.504512 801.651712 744.706048 805.846016 734.329856 813.216768 722.312192 821.193728 710.032384 828.413952 697.365504 834.920448 683.531264 840.864768 670.560256 846.507008 657.027072 851.43552 642.24256 855.478272 628.7104 859.087872 614.31296 862.24384 600.694784 865.572864 585.996288 867.172352 571.597824 868.923392 557.246464 870.80448 542.416896 870.80448 528.106496 870.80448 514.271232 870.80448 499.70176 869.960704 486.040576 868.059136 472.421376 866.178048 458.587136 863.864832 444.88192 861.249536 431.911936 858.072064 418.941952 853.878784 406.880256 849.68448 394.81856 845.642752 382.712832 839.698432 371.299328 834.920448 361.182208 829.126656 350.63296 822.62016 340.90496 815.832064 331.308032 808.180736 323.396608 801.069056 310.9888 789.373952 300.698624 778.50112 290.8416 767.951872 281.8048 757.229568 273.332224 746.248192 265.895936 735.548416 258.676736 724.84864 255.304704 720.070656 252.191744 714.277888 245.446656 704.139264 240.086016 694.022144 235.33056 684.469248 231.179264 674.351104 227.115008 665.100288 223.742976 656.4096 220.63104 647.158784 217.474048 638.619648 213.279744 623.141888 210.210816 608.246784 208.525312 595.796992 206.795776 585.074688 206.795776 576.838656 206.795776 570.181632 206.795776 564.258816 203.855872 561.058816 201.17504 556.71296 199.057408 552.822784 197.240832 548.629504 194.950144 539.506688 192.442368 531.119104 191.62112 523.618304 191.058944 518.106112 191.058944 512.183296 185.265152 503.774208 181.157888 495.386624 178.045952 487.302144 175.75424 480.06144 173.98272 473.121792 172.296192 466.594816 172.296192 461.124608 172.296192 455.028736 172.296192 449.9712 173.290496 445.928448 174.716928 438.535168 176.489472 432.892928 173.290496 430.429184 164.210688 423.641088 152.236032 412.660736 144.88576 406.153216 137.709568 399.776768 132.781056 394.696704 128.7168 390.221824 119.983104 380.819456 111.68256 371.416064 105.197568 363.309056 97.415168 351.592448 89.979904 341.045248 82.629632 329.306112 76.447744 318.454784 71.303168 306.910208 65.855488 296.189952 61.877248 285.63968 57.683968 274.637824 54.571008 263.938048 51.501056 252.935168 48.77824 243.380224 47.263744 233.111552 45.57824 223.578112 44.150784 214.304768 43.287552 196.233216 43.287552 179.459072 43.287552 171.936768 44.150784 164.543488 46.44352 151.9616 47.263744 146.427904 48.77824 140.809216 50.6368 135.489536 52.366336 131.730432 55.133184 124.76928 57.25184 123.341824 58.548224 120.402944 60.191744 119.711744 61.186048 119.711744 61.877248 119.711744 69.097472 120.402944 76.447744 122.303488 82.629632 124.76928 89.114624 128.96256 95.03744 132.85376 100.39808 137.955328 106.191872 143.27296 111.077376 148.764672 115.745792 154.989568 119.983104 160.611328 123.961344 165.277696 126.425088 170.63936 131.267584 179.459072 132.781056 183.069696 133.645312 185.230336 134.076416 187.695104 135.201792 189.72672 136.066048 190.158848 137.709568 191.025152 138.74688 191.025152 139.179008 190.158848 140.000256 190.158848 140.822528 189.72672 143.545344 177.729536 146.485248 168.044544 150.419456 157.88544 154.396672 148.764672 157.72672 139.68384 162.871296 131.730432 166.631424 123.341824 170.86976 115.647488 175.75424 108.990464 179.472384 102.590464 189.329408 90.745856 197.933056 80.195584 206.2336 71.981056 214.40512 64.587776 221.495296 58.795008 232.044544 49.41312 236.281856 47.338496 237.707264 45.349888 237.707264 44.355584 236.713984 43.447296 236.281856 43.447296 234.1632 42.755072 226.250752 42.149888 218.901504 41.155584 212.718592 40.290304 206.2336 38.864896 200.569856 37.092352 194.950144 35.362816 190.021632 32.724992 186.131456 30.303232 181.157888 28.703744 178.045952 26.109952 174.716928 24.078336 171.127808 21.183488 166.631424 15.561728 164.94592 12.923904 162.871296 10.633216 160.017408 4.709376 158.461952-0.22016 156.601344-5.146624 156.212224-9.470976 156.212224-15.133696 156.212224-17.598464 155.390976-21.618688 155.390976-25.726976 154.396672-29.7472 154.396672-33.33632 155.390976-37.269504 156.212224-40.77056 158.461952-47.516672 160.017408-50.715648 162.006016-53.9136 164.210688-57.069568 166.631424-59.838464 169.875456-62.993408 172.296192-65.5872 179.472384-70.948864 186.692608-75.444224 194.950144-79.50848 203.855872-83.139584 213.279744-87.02976 223.742976-89.452544 234.1632-92.9536 245.446656-95.289344 256.688128-96.974848 268.273664-98.748416 280.249344-100.477952 303.855616-102.940672 328.195072-103.3728 350.63296-103.3728 361.182208-103.3728 371.299328-103.3728 381.847552-102.940672 390.884352-101.905408 399.617024-101.213184 407.788544-100.477952 420.931584-97.883136 430.398464-95.289344 439.392256-92.9536 455.993344-85.994496 463.516672-83.139584 470.69184-79.50848 482.53952-72.85248 493.216768-67.489792 501.129216-62.43328 506.921984-57.069568 515.95776-58.063872 522.96192-58.843136 536.79616-59.838464 543.281152-59.838464 548.770816-59.838464 552.96512-60.70272 557.246464-62.43328 564.033536-64.893952 571.597824-67.489792 585.996288-71.986176 600.694784-77.345792 615.005184-81.496064 629.445632-84.438016 644.187136-88.155136 659.448832-90.359808 673.931264-91.959296 688.458752-93.990912 702.03392-95.289344 716.560384-96.108544 730.481664-96.108544 744.013824-96.108544 756.854784-96.108544 769.823744-94.554112 782.534656-93.990912 794.769408-91.959296 806.052864-89.452544 817.337344-87.02976 828.147712-84.438016 832.641024-83.139584 837.6576-81.496064 847.040512-77.778944 855.384064-73.887744 863.25248-69.823488 870.601728-65.5872 877.08672-60.70272 879.637504-58.063872 882.707456-54.4768 886.64064-49.677312 890.92096-43.754496 892.478464-40.77056 893.169664-38.264832 894.984192-35.064832 895.676416-31.60576 895.676416-28.275712 896.54272-24.947712 895.676416-20.063232 894.984192-15.868928 893.169664-10.940416 891.742208-6.87616 889.061376-1.946624 885.820416 2.547712 882.707456 6.438912 878.513152 9.724928 869.866496 17.248256 860.182528 24.511488 850.41152 30.303232 840.121344 36.227072 816.603136 47.813632 810.9824 51.272704 809.426944 52.872192 808.430592 53.909504 819.759104 65.324032 824.644608 70.943744 828.70784 76.132352 836.619264 87.588864 844.09856 99.305472 850.41152 109.724672 856.377344 119.711744 864.375808 139.68384 870.601728 156.285952 874.707968 168.044544 877.08672 171.936768 878.513152 175.092736 880.97792 176.995328 882.015232 176.995328 882.707456 176.561152 888.759296 164.543488 894.163968 152.957952 897.968128 146.427904 901.901312 140.809216 905.793536 133.892096 910.808064 127.058944 915.001344 122.303488 917.552128 119.711744 920.059904 117.374976 922.351616 115.647488 924.557312 114.046976 929.398784 111.582208 931.90656 110.717952 933.593088 110.717952 935.839744 110.717952 938.391552 111.582208 941.548544 113.18272 945.050624 114.783232 947.945472 117.374976 950.668288 120.402944 953.73824 124.164096 956.158976 127.058944 958.88384 131.730432 960.917504 135.489536 963.337216 140.809216 964.6336 145.304576 968.136704 156.285952 970.426368 168.434688 972.068864 181.902336 973.193216 189.72672 973.193216 196.233216 973.193216 203.194368 973.193216 211.712Z"  horiz-adv-x="1024" />

    
    <glyph glyph-name="lianxiwomen" unicode="&#58891;" d="M512 885.761024c-277.134336 0-501.76-224.664576-501.76-501.76 0-277.134336 224.625664-501.76 501.76-501.76 277.136384 0 501.76 224.625664 501.76 501.76C1013.76 661.095424 789.13536 885.761024 512 885.761024zM641.238016 464.647168c-22.336512 8.943616-13.353984 55.860224-13.353984 55.860224 2.204672 11.190272-15.108096 3.919872-15.108096 3.919872-44.751872-20.456448-221.234176-197.387264-241.201152-241.201152 0 0-7.2704-17.314816 3.919872-15.110144 0 0 46.916608 8.942592 55.81824-13.392896 0 0 15.638528-122.865664-68.151296-211.106816 0 0-140.71296 27.9296-151.90016 153.04192 0 0 6.697984 79.297536 204.9024 283.099136 0.038912 0 0.038912 0 0.038912 0.038912 0 0 0.04096 0 0.04096 0.04096 203.798528 198.20544 283.099136 204.86144 283.099136 204.86144 125.07136-11.14624 153.00096-151.90016 153.00096-151.90016C764.104704 449.0496 641.238016 464.647168 641.238016 464.647168z"  horiz-adv-x="1024" />

    
    <glyph glyph-name="daohangguanyu" unicode="&#58892;" d="M510.815232 833.033216c-247.431168 0-448.019456-200.588288-448.019456-448.019456 0-247.438336 200.588288-448.026624 448.019456-448.026624 247.442432 0 447.961088 200.589312 447.961088 448.026624C958.77632 632.444928 758.257664 833.033216 510.815232 833.033216zM561.875968 205.878272c-17.767424-6.995968-25.483264-4.793344-36.073472-8.479744s-22.883328-5.528576-36.885504-5.528576c-21.53984 0-38.276096 5.279744-50.209792 15.745024-11.940864 10.52672-24.882176 23.834624-24.882176 40.000512 0 0.764928-1.733632 31.270912 8.317952 52.1216l30.841856 72.15616c1.99168 7.53664 3.662848 14.67392 5.006336 21.398528 1.343488 6.7328 2.015232 7.497728 2.015232 13.058048 0 10.05056-6.373376 17.056768-10.512384 20.992-4.139008 3.95264-21.742592 5.935104-33.44896 5.935104-5.755904 0-11.65312-0.905216-17.682432-2.686976-6.029312-1.79712-12.534784-3.5072-16.852992-5.123072l1.624064 29.61408c14.558208 5.927936 43.813888 14.222336 57.106432 18.44736 13.299712 4.201472 25.874432 6.325248 37.74464 6.325248 21.383168 0 43.195392-5.170176 54.785024-15.486976 11.583488-10.3168 25.99936-26.96704 25.99936-43.485184 0-3.4048-0.405504-9.41056-1.211392-18.03264-0.80384-8.62208-2.286592-16.518144-4.443136-23.694336l-36.088832-71.890944c-1.79712-6.280192-3.421184-13.463552-4.857856-21.523456-1.444864-8.091648-2.163712-24.835072-2.163712-28.97408 0-10.4192 2.327552-17.5104 6.989824-21.260288 4.663296-3.77856 9.4976-9.980928 20.969472-9.980928 15.565824 0 14.621696-2.609152 29.843456 4.57728L561.875968 205.878272zM561.46944 529.261568c-9.667584-8.981504-21.305344-15.494144-34.917376-15.494144-13.613056 0-25.295872 6.51264-35.043328 15.494144-9.746432 9.005056-14.619648 20.88448-14.619648 33.660928 0 12.76928 4.873216 24.702976 14.619648 33.78688 9.747456 9.073664 21.430272 14.619648 35.043328 14.619648 13.612032 0 25.248768-4.537344 34.917376-13.620224 9.662464-9.075712 14.487552-22.016 14.487552-34.78528C575.956992 550.146048 571.131904 538.266624 561.46944 529.261568z"  horiz-adv-x="1024" />

    
    <glyph glyph-name="qq" unicode="&#58893;" d="M520.489984 379.154432c-130.653184 0-162.408448 24.978432-162.408448 24.978432-16.058368-16.236544-24.996864-49.954816-24.996864-49.954816s11.200512-11.558912 47.002624-21.823488c-3.74784-32.550912-7.177216-90.195968 15.461376-90.55232 15.1808-0.24064 33.819648 1.943552 49.993728 12.488704 12.171264 7.950336-1.14688 41.745408-8.40704 67.079168 22.91712-2.811904 50.234368-4.65408 83.355648-4.65408 123.697152 0 174.920704 37.462016 174.920704 37.462016-7.650304 30.313472-24.996864 49.954816-24.996864 49.954816C633.863168 381.609984 575.717376 379.154432 520.489984 379.154432L520.489984 379.154432zM512.32256 891.124736c-280.276992 0-507.4688-227.211264-507.4688-507.4688s227.191808-507.47392 507.4688-507.47392c280.283136 0 507.474944 227.21536 507.474944 507.47392S792.600576 891.124736 512.32256 891.124736L512.32256 891.124736zM750.459904 242.275328c-25.652224 4.027392-49.163264 37.4272-49.163264 37.4272s-14.9248-54.1184-36.849664-74.850304c0 0 76.399616-37.147648 30.963712-75.449344-41.731072-35.146752-126.253056-18.711552-137.435136 12.489728 0 0-12.609536-3.111936-37.485568-3.111936-27.177984 0-37.486592 3.111936-37.486592 3.111936-13.438976-33.698816-107.522048-45.21472-149.92384-12.489728-47.6928 36.831232 25.991168 75.449344 25.991168 75.449344-22.402048 20.732928-37.625856 74.850304-37.625856 74.850304s-23.984128-33.404928-50.172928-37.4272c-50.646016 75.526144 62.700544 174.621696 62.700544 174.621696-29.059072 173.35296 107.71968 236.988416 179.35872 236.988416 70.157312 0 204.157952-63.635456 175.673344-236.988416C689.009664 416.896 807.868416 317.16864 750.459904 242.275328L750.459904 242.275328zM750.459904 242.275328"  horiz-adv-x="1024" />

    
    <glyph glyph-name="shouye" unicode="&#58894;" d="M660.931435 498.084315c-16.344916 15.452947-31.059639 29.41903-44.134958 41.900296l-33.88101 31.204699c-8.917456 8.327666-14.263426 13.375635-16.048145 15.160281-16.641687 15.454994-35.369981 22.730701-56.171579 21.840424-20.805691-0.889253-38.638555-8.1711-53.4945-21.840424-2.383378-2.378164-8.177575-7.875365-17.390778-16.499789-9.20911-8.619308-20.653212-19.164478-34.32412-31.646767-13.668861-12.476149-28.82567-26.301016-45.473497-41.453111-16.645781-15.162328-33.287468-30.464849-49.923015-45.918819-39.830756-36.252669-84.111029-76.670194-132.854124-121.247458L177.235709-16.096351c0-14.262842 5.054316-25.261337 15.157832-32.984229 10.108633-7.730055 23.778517-11.588943 41.016816-11.588943l175.649519 0c-0.119732 1.866511-0.2016 3.744277-0.2016 5.641487L408.858277 97.035266c0 48.060599 38.961933 87.020936 87.025525 87.020936l32.231373 0c48.062568 0 87.024501-38.960337 87.024501-87.020936l0-152.064324c0-1.89721-0.081868-3.773953-0.2016-5.641487l175.72013 0c16.643734 0.590448 29.869485 5.941316 39.672137 16.044418 9.811862 10.106172 14.717793 21.695115 14.717793 34.770921l0 337.650113c-49.33766 45.76737-93.917774 87.074148-133.740343 123.926474C694.066424 467.175351 677.276351 482.629321 660.931435 498.084315zM959.165779 417.846876c-0.595589 14.266935-7.128643 27.336602-19.61349 39.225373l-22.291592 22.287609c-11.289577 11.295254-25.256232 24.817222-41.904059 40.563858-16.641687 15.754822-34.919708 33.43653-54.833039 53.049217-19.907191 19.617803-40.272842 39.375799-61.073416 59.290361-20.805691 19.915585-41.308471 39.673581-61.513456 59.291384-20.219312 19.612687-38.492216 37.294394-54.842249 53.0441-16.3398 15.750729-30.167279 29.127388-41.454809 40.120766-11.29674 10.998495-18.724201 17.97949-22.295686 20.955264-18.42129 17.83418-40.708789 26.598798-66.871707 26.295899-26.146545-0.296759-50.522697-11.435447-73.103897-33.431414-2.97692-2.967588-13.526616-12.924357-31.653181-29.863145-18.129635-16.941857-39.824616-37.298488-65.086988-61.07603-25.265442-23.775496-52.604187-49.333592-82.029539-76.67531-29.420235-27.336602-56.913506-52.898791-82.470602-76.670194-25.559143-23.777543-47.550894-44.284599-65.978324-61.519122-18.426406-17.2335-29.420235-27.6395-32.990697-31.203676-9.509974-8.916067-14.564291-20.951171-15.152716-36.103266-0.597635-15.161305 5.0492-28.091802 16.938458-38.788421 10.701151-9.508561 23.480723-13.964036 38.336668-13.371542 14.860038 0.594541 26.749297 4.455475 35.665729 11.586896 2.972826 2.379187 11.737803 10.254551 26.303117 23.626094 14.559174 13.372565 31.948929 29.574572 52.155961 48.594765 20.212149 19.018146 42.204923 39.522132 65.982417 61.512982 23.7734 21.995967 46.362787 43.092447 67.756903 63.303768 21.400256 20.207227 40.272842 37.887912 56.617758 53.05024 16.344916 15.152095 27.489177 25.405623 33.438923 30.751375 17.829794 16.052604 35.958406 24.375154 54.379696 24.968671 18.431523 0.592494 37.155724-7.730055 56.176695-24.968671 4.158887-3.565199 13.965632-12.773931 29.420235-27.633361 15.454603-14.860453 33.886127-32.396851 55.278196-52.602032 21.401279-20.212344 44.138028-41.756009 68.206153-64.642253 24.079381-22.881127 46.660581-44.279483 67.76816-64.188928 21.099392-19.909445 39.22698-37.001729 54.384813-51.263547 15.157832-14.267958 24.215487-22.590508 27.192406-24.968671 8.916432-7.723915 20.804667-11.889795 35.658565-12.478196 14.863108-0.596588 27.944567 4.158716 39.232097 14.262842C955.005869 391.691169 959.761368 403.579941 959.165779 417.846876z"  horiz-adv-x="1024" />

    
    <glyph glyph-name="queding" unicode="&#58895;" d="M1013.62632 744.021633c-13.82748 13.82589-36.223454 13.82589-50.048887 0L353.22805 99.637534l-292.616164 292.634874c-13.895021 13.860682-36.361606 13.860682-50.187039 0-13.895021-13.859659-13.895021-36.325323 0-50.184983l318.063761-318.085522c13.049735-13.015432 33.65792-13.805424 47.568291-2.375094 1.395847 1.034563 2.73541 2.183735 4.002315 3.447519l633.569152 668.900469C1027.452777 707.799664 1027.452777 730.196767 1013.62632 744.021633z"  horiz-adv-x="1024" />

    
    <glyph glyph-name="search" unicode="&#58896;" d="M439.323351 120.52219c-49.280352 0-97.09834 9.656941-142.126681 28.699646-43.480015 18.388812-82.522793 44.706201-116.043584 78.225619s-59.841305 72.560596-78.230871 116.03883C83.878729 388.513804 74.222416 436.330856 74.222416 485.609189c0 49.284473 9.656313 97.104595 28.699798 142.133138 18.388542 43.479257 44.71008 82.520435 78.231894 116.03883 33.518745 33.515325 72.562546 59.832713 116.043584 78.219479 45.027318 19.039635 92.846329 28.694529 142.125658 28.694529 49.280352 0 97.099364-9.653871 142.126681-28.694529 43.481039-18.385742 82.525863-44.704155 116.044608-78.220502 33.520791-33.518395 59.842328-72.559573 78.230871-116.03883 19.042462-45.028543 28.699798-92.848665 28.699798-142.133138 0-49.278333-9.657336-97.095385-28.701845-142.122905-18.388542-43.47721-44.708033-82.520435-78.228824-116.03883s-72.563569-59.838853-116.043584-78.226642C536.422715 130.177084 488.603703 120.52219 439.323351 120.52219zM439.323351 797.483242c-171.975699 0-311.887855-139.906423-311.887855-311.875077S267.347652 173.734112 439.323351 173.734112s311.887855 139.907447 311.887855 311.874053S611.299051 797.483242 439.323351 797.483242zM890.678206-48.734702c-22.121716 0-42.90387 8.562003-58.541653 24.115234L674.672953 128.025071l37.039062 38.20616 157.888289-153.058978c5.606924-5.606695 13.091693-8.692986 21.077901-8.692986 7.983139 0 15.464837 3.087315 21.070738 8.69094 5.616135 5.622044 8.715856 13.126972 8.715856 21.123087 0 7.980765-3.091535 15.46318-8.702552 21.067828l-0.301888 0.306992L758.714395 213.230662l38.207726 37.035498 152.611906-157.427472c15.571265-15.638165 24.144876-36.422538 24.144876-58.549487 0-22.195511-8.625801-43.054585-24.287121-58.735729C933.723298-40.112324 912.876674-48.734702 890.678206-48.734702zM281.015489 327.245392c-42.340005 42.320874-65.652899 98.584296-65.643689 158.421102 0.008187 59.818387 23.319034 116.074645 65.637549 158.4078l37.634651-37.619806c-66.60666-66.629513-66.60973-175.00071-0.007163-241.577011L281.015489 327.245392z"  horiz-adv-x="1024" />

    
    <glyph glyph-name="jinggao1" unicode="&#58897;" d="M952.509923 96.517473 558.990611 724.534813c-9.760694 15.626909-27.795158 25.344225-46.967586 25.344225-19.216431 0-37.206891-9.717316-47.01159-25.344225L71.480867 96.517473c-10.417684-16.633842-10.265205-37.205367 0.393989-53.6632 10.023695-15.495926 27.445173-24.731264 46.59611-24.731264l787.070348 0c19.171404 0 36.593906 9.235338 46.57462 24.731264C962.796619 59.312106 962.927607 79.883631 952.509923 96.517473zM562.274535 118.270916c0-5.777587-1.794953-11.511171-5.29685-15.887852-3.545901-4.376681-8.185762-6.565533-12.781618-6.565533l-62.683143 0c-4.63986 0-9.279721 2.188852-12.781618 6.565533-3.544878 4.376681-5.295827 10.111289-5.295827 15.887852l0 37.424354c0 5.734608 1.750949 11.512195 5.295827 15.888875 3.501897 4.376681 8.141758 6.565533 12.781618 6.565533l62.683143 0c4.595856 0 9.235717-2.188852 12.781618-6.565533 3.501897-4.376681 5.29685-10.155291 5.29685-15.888875L562.274535 118.270916zM556.933681 241.050264c-3.545901-2.932796-8.185762-4.420683-12.825622-4.376681l-62.289154 0.261966c-4.595856 0-9.191713 1.488911-12.69361 4.377704-3.501897 2.931772-5.252846 6.740518-5.29685 10.592242l-0.393989 105.70753L463.434456 523.636271c0 3.807722 1.750949 7.659447 5.252846 10.592242 3.545901 2.932796 8.185762 4.420683 12.781618 4.420683l62.595135 0c4.63986 0 9.279721-1.487887 12.781618-4.420683 3.545901-2.932796 5.29685-6.78452 5.29685-10.592242l0-164.798347 0.088008-107.108436C562.274535 247.833761 560.479583 243.982036 556.933681 241.050264z"  horiz-adv-x="1024" />

    
    <glyph glyph-name="mima" unicode="&#59086;" d="M762.829 357.086 762.829 504.792c0 135.399-109.785 245.184-245.184 245.184-1.686 0-2.906 0.098-4.566 0.049-1.368 0.024-3.102-0.073-4.493-0.073-135.43 0-245.166-109.785-245.166-245.184l0-147.682-86.782 0 0-507.125 675.268 0L851.906 357.086 762.829 357.086zM590.924-57.065 437.785-57.065l37.506 163.944c-22.434 13.356-37.506 37.774-37.506 65.782 0 42.293 34.283 76.576 76.563 76.576 42.292 0 76.575-34.283 76.575-76.576 0-28.117-15.2-52.621-37.787-65.954L590.924-57.065zM640.151 357.086 386.073 357.086 386.073 504.768c0 67.541 54.966 122.482 122.513 122.482 1.929 0 5.982 0.098 5.982 0.098s2.051-0.073 3.077-0.073c67.54 0 122.506-54.941 122.506-122.482L640.151 357.086z"  horiz-adv-x="1024" />

    
    <glyph glyph-name="you" unicode="&#58898;" d="M169.380489 743.351368l0-710.174502 685.712833 0 0 710.174502L169.380489 743.351368zM193.871256 718.862627 830.603578 718.862627l0-661.195997L193.871256 57.66663 193.871256 718.862627zM641.502147 353.635435l34.630101 34.628682L451.013057 613.398644l-34.631124-34.628682 190.48909-190.501752L416.381933 197.808414l34.631124-34.629705 190.487044 190.458773L641.502147 353.635435z"  horiz-adv-x="1024" />

    
    <glyph glyph-name="fanhui1" unicode="&#58899;" d="M511.213557 830.62506c-245.875761 0-445.212719-199.317535-445.212719-445.184245s199.336958-445.184245 445.212719-445.184245c245.898275 0 445.222953 199.316511 445.222953 445.184245S757.111832 830.62506 511.213557 830.62506zM511.236071-15.129326c-220.774055 0-400.391095 180.345438-400.391095 400.919089 0 220.570581 179.61704 400.004253 400.391095 400.004253 220.776102 0 400.391095-179.433672 400.391095-400.004253C911.627165 165.216111 732.012172-15.129326 511.236071-15.129326zM711.648568 407.562649 348.187037 407.562649l132.332216 141.90494c8.681062 8.691963 8.681062 22.772656 0 31.465642-8.703576 8.692986-22.786893 8.692986-31.467955 0L267.533901 384.831948l178.72468-197.47149c4.356393-4.347005 10.049279-6.541997 15.733977-6.541997 5.692886 0 11.387818 2.194992 15.733977 6.541997 8.694366 8.67252 8.694366 22.750143 0 31.469736l-130.961953 144.224776 364.885008 0c12.290411 0 22.254752 9.954723 22.254752 22.255887C733.90332 397.589506 723.937956 407.562649 711.648568 407.562649z"  horiz-adv-x="1024" />

    
    <glyph glyph-name="circularprint" unicode="&#58900;" d="M789.504 562.368c-15.104 0-27.392-12.288-27.392-27.392 0-15.168 12.224-27.456 27.392-27.456 15.168 0 27.456 12.288 27.456 27.456C816.96 550.08 804.672 562.368 789.504 562.368zM680.512 669.888 343.616 669.888l0-78.272 336.896 0L680.512 669.888zM263.232 322.304l40 0L303.232 400.448l40.384 0 0-130.496c1.792-63.488 140.352-29.76 140.352-29.76s-28.864-142.144 31.104-142.144l165.44 0L680.512 400.448l40.384 0L720.896 320.64l39.872 0L760.768 458.24 263.232 458.24 263.232 322.304zM400.832 394.88l231.936 0 0-40.384L400.832 354.496 400.832 394.88zM400.832 315.712l231.936 0 0-40.32L400.832 275.392 400.832 315.712zM512 864C246.784 864 32 649.152 32 384c0-265.152 214.784-480 480-480 265.152 0 480 214.848 480 480C992 649.152 777.152 864 512 864zM720.896 264.64l0-206.848L462.208 57.792l-158.976 158.912L303.232 266.304 160 266.304 160 557.312c0 18.88 15.36 34.304 34.24 34.304l108.992 0L303.232 710.272l417.664 0 0-118.656 108.8 0c18.944 0 34.304-15.36 34.304-34.304l0-292.672L720.896 264.64z"  horiz-adv-x="1024" />

    
    <glyph glyph-name="xia1" unicode="&#58901;" d="M1022.230937 385.903577c0 281.720196-228.336484 510.096423-509.990442 510.096423-281.665168 0-509.994519-228.375208-509.994519-510.096423 0-281.698796 228.329351-510.075023 509.994519-510.075023C793.894453-124.171446 1022.230937 104.203761 1022.230937 385.903577zM68.485965 385.903577c0 245.130352 198.67513 443.836053 443.754529 443.836053 245.081438 0 443.758606-198.705701 443.758606-443.836053 0-245.118124-198.677168-443.821786-443.758606-443.821786C267.162114-57.919229 68.485965 140.785453 68.485965 385.903577zM510.324689 227.185217 781.746413 498.60796 741.012111 539.343281 510.324689 308.655859 279.637268 539.343281 238.901947 498.60796Z"  horiz-adv-x="1024" />

    
    <glyph glyph-name="dianhua1" unicode="&#58902;" d="M715.833897-61.531146c-55.903218 0-128.07598 37.244252-178.778756 68.489884-67.902506 41.845037-141.05355 99.728352-205.977211 162.988118l-0.236384 0.233314-20.615527 20.61962c-63.259766 64.922638-121.143081 138.074705-162.988118 205.978235-31.244608 50.701752-68.489884 122.875538-68.489884 178.777733 0 59.821457 42.779316 123.31863 61.171198 147.842163 14.352893 19.136849 64.49285 81.575924 107.096157 81.575924 17.492396 0 36.334533-11.449773 61.093427-37.126572 21.896706-22.707165 42.912345-50.929949 56.686047-70.607104 18.494213-26.419719 35.599799-54.083779 48.165999-77.894068 20.35049-38.559201 22.704095-55.091736 22.704095-64.173578 0-18.330484-9.572006-34.227546-28.448936-47.25014-12.431124-8.575306-27.353998-15.030321-41.785685-21.272489-9.730619-4.208858-25.269523-10.929934-31.197536-15.653515 2.067079-8.759501 11.107989-29.913287 35.535331-65.776076 22.763446-33.420157 52.199872-69.63701 78.791507-96.943936 27.301809-26.589588 63.515592-56.026014 96.939843-78.790484 35.855626-24.421202 57.010435-33.463136 65.771983-35.532261 4.724605 5.929036 11.44568 21.466917 15.654538 31.196513 6.243191 14.431687 12.698207 29.355585 21.275559 41.786709 13.023618 18.876929 28.921703 28.448936 47.252187 28.448936 9.080819 0 25.613354-2.353604 64.172555-22.704095 23.810289-12.5662 51.473325-29.67281 77.893045-48.165999 19.677155-13.773701 47.89994-34.789341 70.607104-56.686047 25.676799-24.75787 37.126572-43.600007 37.126572-61.092403 0-42.60433-62.439074-92.745311-81.5749-107.09718C839.15355-18.75183 775.6574-61.531146 715.833897-61.531146zM366.903879 206.475817c62.282508-60.670801 132.234697-116.051109 196.993606-155.959028 62.786998-38.692231 118.166283-60.882626 151.936411-60.882626 30.081109 0 72.969918 18.370393 114.723881 49.140187 18.306948 13.490246 34.967396 28.513404 46.913473 42.304502 11.211343 12.941753 15.307637 21.383006 16.35141 24.795732-4.330632 9.304923-30.063713 38.403658-90.1236 79.836303-23.557532 16.251126-47.914266 31.185256-68.583005 42.051745-25.954115 13.643742-36.766368 15.999392-39.244816 16.387225-0.958838-0.657986-3.790326-3.02387-8.083096-10.224876-4.810562-8.068769-9.43386-18.754133-13.903661-29.088502-5.504364-12.724813-11.195993-25.88146-18.176988-36.499285-11.354606-17.271362-25.295106-26.030863-41.432645-26.037003-0.293689-0.002047-0.597611 0.00307-0.905626 0.010233-7.855922 0.167822-31.766494 0.678452-96.674806 44.887326-35.839253 24.409946-74.752518 56.063877-104.090707 84.673471l-0.456395 0.456395c-28.609595 29.343305-60.261479 68.254523-84.669378 104.08866-44.213991 64.912405-44.723597 88.820931-44.890396 96.676853-0.352017 16.430204 8.316409 30.618345 25.764803 42.168402 10.667967 7.061836 23.935132 12.799514 36.764322 18.348903 10.333346 4.468778 21.017686 9.091052 29.085432 13.899568 7.199982 4.291746 9.567913 7.123234 10.225899 8.082072-0.388856 2.478448-2.743484 13.290701-16.387225 39.242769-10.865465 20.668739-25.799596 45.025473-42.050722 68.583005-41.432645 60.060911-70.532403 85.792968-79.837326 90.125647-3.412726-1.043772-11.852956-5.140067-24.795732-16.35141-13.791098-11.9471-28.814256-28.607548-42.303478-46.913473-30.769794-41.756009-49.140187-84.642772-49.140187-114.723881 0-33.769105 22.191418-89.147366 60.882626-151.935388 39.907918-64.759933 95.28925-134.712121 155.960051-196.99463L366.903879 206.475817z"  horiz-adv-x="1024" />

    
    <glyph glyph-name="chuanzhenji" unicode="&#58903;" d="M863.417163 398.034645 791.786753 398.034645l0 47.741327c0 18.553565-15.732309 33.086559-35.815717 33.086559l-15.350616 0L740.620419 749.028671c0 23.335475-22.729677 40.932248-52.871161 40.932248L333.002768 789.960918c-30.141484 0-52.871161-17.596773-52.871161-40.932248l0-270.166139-15.349593 0c-20.083407 0-35.815717-14.532995-35.815717-33.086559l0-47.741327-71.631434 0c-31.033807 0-56.281841-23.718191-56.281841-52.870138l0-354.74649c0-29.15297 25.248034-52.871161 56.281841-52.871161l706.081277 0c31.032784 0 56.281841 23.718191 56.281841 52.871161L919.697981 345.164506C919.699004 374.316453 894.449947 398.034645 863.417163 398.034645zM331.29794 738.733187c0.532119 0.039909 1.101077 0.062422 1.705851 0.062422l354.74649 0c0.604774 0 1.172709-0.022513 1.705851-0.062422L689.456133 483.031481c-0.533143-0.039909-1.101077-0.062422-1.705851-0.062422L333.002768 482.969059c-0.603751 0-1.172709 0.022513-1.705851 0.062422L331.296917 738.733187zM280.131607 427.697221 740.621443 427.697221l0-173.962054L280.131607 253.735168 280.131607 427.697221zM868.533694-9.328203c-0.421602-0.611937-2.160199-1.959631-5.116531-1.959631l-706.081277 0c-2.956332 0-4.693906 1.347694-5.116531 1.958608L152.219355 344.910727c0.422625 0.611937 2.160199 1.958608 5.116531 1.958608l71.631434 0 0-111.212918c0-18.553565 15.732309-33.086559 35.815717-33.086559L755.971036 202.569858c20.083407 0 35.815717 14.532995 35.815717 33.086559l0 111.212918 71.630411 0c2.956332 0 4.692882-1.347694 5.116531-1.958608L868.533694-9.328203zM641.598148 97.691205m-25.582655 0a25 25 0 1 0 51.16531 0 25 25 0 1 0-51.16531 0ZM766.441505 97.691205m-25.582655 0a25 25 0 1 0 51.16531 0 25 25 0 1 0-51.16531 0Z"  horiz-adv-x="1024" />

    
    <glyph glyph-name="dianhua2" unicode="&#58904;" d="M419.24548 135.770476l-0.00921 0c-16.471137 0-29.613458 11.069103-43.525306 22.781866l-1.730411 1.447978c-0.414439 0.353041-0.803295 0.741897-1.156336 1.165546-1.994424 2.427282-49.26196 60.039421-78.955236 123.945917-31.564903 67.939345-43.004443 136.788409-43.48028 139.683343-2.62171 20.787442-2.904143 49.456389 24.203238 62.140269l35.713386 16.709567c4.068665 1.906419 8.632611 2.912329 13.195533 2.912329 12.622482 0 22.658046-7.193843 25.562189-18.34174l20.054755-66.439178c4.245697-16.902972-1.306762-30.937616-14.370289-37.054941l-14.034645-6.567579c7.537673-24.211425 15.887852-46.225811 24.846898-65.521273 7.81192-16.824177 17.591657-34.477232 29.119201-52.563146l14.72333 6.884804c12.966313 6.073322 27.52182 1.182942 37.337373-12.418844l38.264489-58.777685c0.23843-0.36225 0.441045-0.741897 0.626263-1.12973 6.66377-14.370289 0.423649-31.519878-13.920034-38.228673l-35.730783-16.717753C430.437379 137.086447 424.806125 135.770476 419.24548 135.770476zM386.268414 173.293067l1.085728-0.917906c11.809977-9.939373 22.005176-18.526959 31.882128-18.526959 0.00921 0 0.00921 0 0.00921 0 2.930749 0 5.89629 0.723477 9.06547 2.206248l35.739992 16.717753c5.172813 2.418073 7.520277 8.491395 5.402033 13.743002l-37.619806 57.797357c-4.307096 5.949502-9.611915 8.712429-14.767332 6.266727l-21.86396-10.221806c-4.087085-1.933025-8.924253-0.530073-11.386328 3.221368-13.866822 21.113877-25.527396 41.785685-34.654264 61.443397-10.229992 22.040992-19.665899 47.408753-28.042683 75.407434-1.280156 4.2897 0.76748 8.871041 4.827959 10.768251l21.140483 9.894348c6.682189 3.133364 5.764284 11.289114 4.616134 15.870456l-20.036335 66.35936c-1.288343 4.925173-7.02602 5.154393-8.16496 5.154393-1.933025 0-3.848655-0.414439-5.53404-1.200338l-35.713386-16.717753c-12.851703-6.010901-17.026792-18.925025-13.973246-43.180452 0.061398-0.36225 11.500938-69.051679 41.989323-134.660956C337.359494 234.41003 381.087415 179.683615 386.268414 173.293067zM521.662057 130.915911c-4.995781 0-9.038864 4.043083-9.038864 9.038864 0 4.995781 4.043083 9.038864 9.038864 9.038864 129.585357 0 235.004315 105.427144 235.004315 235.012502 0 129.577171-105.417935 234.995105-235.004315 234.995105-65.645093 0-128.764666-27.751041-173.190481-76.140121-3.381004-3.671623-9.092076-3.919263-12.771885-0.538259-3.671623 3.371794-3.919263 9.091052-0.538259 12.771885 47.832402 52.095495 115.807562 81.983199 186.500625 81.983199 139.551336 0 253.081019-113.529683 253.081019-253.072833C774.743076 244.454804 661.213393 130.915911 521.662057 130.915911z"  horiz-adv-x="1024" />

    
    <glyph glyph-name="dianhua3" unicode="&#58905;" d="M275.2 896c38.4 0 70.4-6.4 83.2-12.8 32-6.4 51.2-12.8 89.6-294.4l6.4-25.6L352 486.4c38.4-134.4 172.8-236.8 230.4-275.2l89.6 76.8 25.6-6.4c0 0 128-44.8 192-57.6 38.4-6.4 64-25.6 83.2-51.2 19.2-32 19.2-70.4 6.4-121.6-32-108.8-128-172.8-249.6-172.8-44.8 0-96 6.4-147.2 25.6C256 19.2 38.4 448 32 608 44.8 870.4 204.8 896 275.2 896zM352 838.4c-19.2 0-256 83.2-275.2-230.4 6.4-147.2 217.6-556.8 518.4-665.6 166.4-64 300.8-6.4 339.2 115.2 19.2 70.4-6.4 102.4-57.6 115.2-70.4 12.8-204.8 57.6-204.8 57.6l-96-83.2c0 0-243.2 140.8-288 352l108.8 76.8C403.2 582.4 371.2 832 352 838.4z"  horiz-adv-x="1024" />

    
    <glyph glyph-name="58" unicode="&#58906;" d="M512 831C265.146 831 65 630.869 65 384.015 65 137.16 265.161-63 512.015-63 758.869-63 959 137.146 959 384 959 630.854 758.854 831 512 831zM512-33.186C281.952-33.2 94.8 153.952 94.8 384.015 94.8 614.048 281.967 801.2 512 801.2c230.063 0 417.2-187.138 417.2-417.186C929.2 153.952 742.048-33.2 512-33.186zM275.564 297.045 292.429 280.282 512.015 498.893 731.6 280.282 748.45 297.059 512 532.433Z"  horiz-adv-x="1024" />

    
    <glyph glyph-name="icon" unicode="&#58907;" d="M210.858103 718.265493l634.909448-634.909448-32.914199-32.914199-634.909448 634.909448 32.914199 32.914199ZM845.774825 685.344621l-634.909448-634.909448-32.914199 32.914199 634.909448 634.909448 32.914199-32.914199Z"  horiz-adv-x="1024" />

    
    <glyph glyph-name="icon52" unicode="&#58908;" d="M512 830.690552c-246.710938 0-446.709995-199.999057-446.709995-446.709995s199.999057-446.709995 446.709995-446.709995 446.709995 199.999057 446.709995 446.709995S758.710938 830.690552 512 830.690552zM685.721577 334.347137 338.279447 334.347137l0 99.267864 347.441107 0L685.720553 334.347137z"  horiz-adv-x="1024" />

    
    <glyph glyph-name="caution" unicode="&#58909;" d="M512 896C229.23 896 0 666.77 0 384c0-282.77 229.23-512 512-512 282.77 0 512 229.23 512 512C1024 666.77 794.77 896 512 896zM576 84c0-11.044-8.956-20-20-20l-88 0c-11.046 0-20 8.956-20 20l0 88c0 11.044 8.954 20 20 20l88 0c11.044 0 20-8.956 20-20L576 84zM576 340c0-11.046-8.954-20-20-20l-88 0c-11.046 0-20 8.954-20 20L448 684c0 11.044 8.956 20 20 20l88 0c11.046 0 20-8.956 20-20L576 340z"  horiz-adv-x="1024" />

    
    <glyph glyph-name="chevron-down" unicode="&#58910;" d="M877.09725 657.822 512.00025 292.726 146.90425 657.822c-33.607 33.607-88.093 33.607-121.699 0-33.607-33.607-33.607-88.092 0-121.699l425.945-425.945c33.605-33.606 88.091-33.606 121.698 0l425.945 425.945c33.607 33.606 33.607 88.092 0 121.699C965.18825 691.426 910.70325 691.426 877.09725 657.822z"  horiz-adv-x="1025" />

    
    <glyph glyph-name="icon27" unicode="&#58911;" d="M511.744685-41.455925 74.937225 482.712209l262.084067 0L337.021292 831.13262l349.44474 0 0-348.420411 262.083044 0L511.744685-41.455925zM654.153092 448.064085 654.153092 807.228187l-287.111067-1.446955 1.622964-357.716124-207.209272 0 350.287945-434.371992L875.175975 448.064085 654.153092 448.064085z"  horiz-adv-x="1024" />

    
    <glyph glyph-name="chuanzhen" unicode="&#58912;" d="M865.172133 418.289967l-71.657017 0 0 47.761794c0 18.561751-15.738449 33.097816-35.827997 33.097816l-15.358803 0 0 270.2654c0 23.343661-22.738887 40.947598-52.890604 40.947598L334.562287 810.362574c-30.154787 0-52.891627-17.603937-52.891627-40.947598l0-270.2654-15.353686 0c-20.089547 0-35.827997-14.536065-35.827997-33.097816l0-47.761794-71.65804 0c-31.046087 0-56.30333-23.725354-56.30333-52.886511l0-354.875426c0-29.166273 25.258267-52.890604 56.30333-52.890604l706.340173 0c31.04097 0 56.299237 23.724331 56.299237 52.890604L921.470347 365.403456C921.476487 394.564613 896.21822 418.289967 865.172133 418.289967L865.172133 418.289967zM332.855412 759.11847c0.533143 0.037862 1.105171 0.059352 1.709945 0.059352l354.877473 0c0.601704 0 1.172709-0.021489 1.703805-0.059352l0-255.79892c-0.531096-0.037862-1.102101-0.062422-1.703805-0.062422L334.562287 503.257128c-0.601704 0-1.172709 0.023536-1.706875 0.062422L332.855412 759.11847 332.855412 759.11847zM281.671683 447.963801l460.661751 0L742.333434 273.939325l-460.661751 0L281.671683 447.963801 281.671683 447.963801zM870.291734 10.78181c-0.421602-0.61603-2.159176-1.962701-5.119601-1.962701L158.83196 8.819109c-2.959402 0-4.696975 1.346671-5.117554 1.958608L153.714406 365.149677c0.420579 0.610914 2.158153 1.958608 5.117554 1.958608l71.65804 0 0-111.255897c0-18.556635 15.738449-33.098839 35.827997-33.098839l491.369124 0c20.089547 0 35.827997 14.542204 35.827997 33.098839L793.515117 367.108285l71.657017 0c2.960425 0 4.693906-1.347694 5.119601-1.958608L870.291734 10.78181 870.291734 10.78181zM670.271188 117.428735c0-14.506389-11.758812-26.2652-26.2652-26.2652s-26.2652 11.758812-26.2652 26.2652 11.758812 26.2652 26.2652 26.2652S670.271188 131.935124 670.271188 117.428735zM794.091238 117.428735c0-14.506389-11.758812-26.2652-26.2652-26.2652s-26.2652 11.758812-26.2652 26.2652 11.758812 26.2652 26.2652 26.2652S794.091238 131.935124 794.091238 117.428735z"  horiz-adv-x="1024" />

    
    <glyph glyph-name="dianhua4" unicode="&#58913;" d="M572.555679 645.892709l-1.983167-40.409338 118.125351-123.979686c0 0 5.019317-28.189016-114.876354-153.704684-66.043159-69.13866-129.263016-97.41568-129.263016-97.41568l-133.989667 73.003687-32.272008-4.186346L62.389444 112.037958l2.942005-44.535309 192.96485-128.194684 16.501836-4.91801c342.819856 1.609661 960.770933 565.101405 551.621393 899.221112l-37.95852-0.541329L572.555679 645.892709zM633.360534 622.826364l174.282349 151.08502c279.455713-264.174682-174.063361-772.650415-524.223393-782.778076L128.821459 93.817991l173.411515 150.397359 130.888026-63.680345 33.464159 5.269004c0 0 60.944024 28.628014 139.083685 104.527658 78.139661 75.901691 143.891178 170.331363 143.891178 170.331363l0.782829 39.311331L633.360534 622.826364z"  horiz-adv-x="1024" />

    
    <glyph glyph-name="fou" unicode="&#58914;" d="M504.867667-64.168035c6.263022-5.096839 14.003344 4.156369 8.885154 9.717851C506.624567-53.786263 506.714039-59.887626 504.867667-64.168035zM327.183904-112.734924c-5.829897-2.23171-10.121491 2.732955-11.841788-2.775657 14.337847 0.133191 27.319383-12.071568 45.905104-12.489442C357.096951-116.153151 335.776242-120.411193 327.183904-112.734924zM32.535156 221.676897c1.733515 0.205378 4.199072-0.237913 4.432918 1.383762 0.540897 12.015648 1.434598 24.348515-8.884137 31.919044 5.818713 1.283106 3.737479-4.82639 10.366521-2.779724-0.030502 8.383909-5.884801 11.99328-13.330273 9.715818-1.186517 6.28539-8.920739 6.439932-5.915302 16.647844l-4.444102 0c0.155559-33.996212 7.330583-74.847179 20.733043-108.22929C53.52543 176.658376 33.105538 206.430099 32.535156 221.676897zM636.656493-48.903953c0.402623-2.959685 7.530877-6.662595 8.879054-4.162469C641.924142-52.296762 642.380651-47.697101 636.656493-48.903953zM309.414613-109.955199c-3.569719 2.661784-5.8726 6.512119-8.878037 9.708701-3.372475 1.003507-7.572563 1.24142-10.366521 2.777691-30.944005 23.104044-66.542575 33.569188-91.812242 61.058364-27.036734 6.644294-33.764399 39.456022-62.180827 40.233816 11.625226-13.491932 21.013659-30.052338 35.533499-40.233816 3.82085-2.678052 9.17187-2.649584 13.329256-5.553348 7.617299-5.336786 13.028306-14.220923 20.725926-19.424519 4.23669-2.864112 10.252648-5.676372 14.812657-8.335106 25.850216-15.039386 58.564339-36.081514 87.360006-41.625711C309.510185-111.403015 311.706309-110.689274 309.414613-109.955199zM102.215342 801.774055c29.144403-17.264996 62.145242 7.524777 65.151696 31.919044-4.704384 49.817459-74.460824 44.07805-79.951135 2.778708C86.257853 827.817449 90.570798 808.67863 102.215342 801.774055zM19.203866 631.019268c6.204052 7.550195-15.950372 19.997951-17.769291 6.929993C4.662675 633.111687 10.139769 630.381782 19.203866 631.019268zM51.779714 148.131125c1.332926 7.643734-5.674339 14.720135-8.883121 22.202209-0.270449-2.052766-3.587003-1.273956-5.92852-1.386812 6.665645-13.176747 6.191851-33.053708 16.295041-43.018624 5.644854-29.85611 30.631871-53.627126 44.417636-80.478815 11.7574-7.475974 17.331083-20.756427 29.61718-27.746407-1.59524 11.457467-12.857496 13.856936-13.336373 26.365696C84.529422 70.593693 74.295075 115.124186 51.779714 148.131125zM100.637386 266.077249l5.932587 0c-0.340603 2.621115 1.662344 3.058307 1.469167 5.548265-2.032432-0.056937-3.244367 0.653754-4.445119 1.388845-0.438208-2.725838 2.002947-2.754306 2.975952-4.161453C105.646787 266.932314 100.858015 268.643461 100.637386 266.077249zM87.31423 317.419795c1.103146 0.585633 2.993236 8.070758-2.962735 8.320872C85.248246 322.883671 81.961176 316.101103 87.31423 317.419795zM1006.831593 378.474092c26.204037 32.251513 9.951698 82.137093 1.473234 124.884251-6.178634 31.153451-21.253606 60.278536-26.654445 86.02403-2.442172 3.725278-8.073808 4.46037-10.357371 8.327989-17.641184 62.568199-53.239754 108.287243-96.247193 147.086461-9.532807-1.778251-13.220467-0.487011-20.727959-4.166536-1.313608 2.466573-4.139085 3.52905-2.963751 8.331039-6.800869-0.617152-13.425845-2.926133-13.329256 5.551315 8.562852-0.58665 13.730862-1.1794 23.696794-2.784808-3.413144 4.409533-4.744036 3.535151-2.962735 11.09958C796.006683 826.618731 696.344313 871.568114 590.746306 882.166449c-45.073424 9.143402-91.868162 6.64531-136.217677 1.388845-18.472865-2.187991-34.54321-13.93319-54.791275-11.10568-38.741264-15.027186-81.618563-26.194886-112.525967-48.557738-4.043513-0.127091-2.975952 2.311014-5.922419 0-18.788049-14.311412-43.396845-23.178265-59.230293-40.252117-34.309363-19.642098-58.640593-48.645176-88.841373-72.143709-0.8815-4.424784 2.777691-4.28651 0-6.945244-18.195299-7.316348-18.544035-23.09591-28.140896-37.466292 3.851352-0.556148 4.282443-4.307861 5.93157-6.939144-17.654402-17.845546-15.440993-59.584113-45.905104-61.04718 15.741943-16.670212-1.018758-38.681278-13.330273-51.343563 5.489295-6.137965-2.104619-11.840772-4.440035-15.258999 1.800619-10.826081-5.266632-17.973653-1.486451-26.366712-8.501849-19.013762-28.603506-27.333617-23.683577-48.560788-4.530524-1.003507-5.40084 1.40613-8.885154 1.386812-0.870316-2.88343-2.844795-4.733869-5.922419-5.554365-3.894054-26.087113-2.033449-59.984703-1.482384-92.971307 0.258248-15.412524 5.021602-29.252176 5.922419-43.009473 0.845915-12.80361-5.478111-28.497767 7.407854-36.084564 4.199072-0.239947-1.792485 9.084432 4.440035 6.949311 3.660208-1.198718 5.429308-4.164503 5.915302-8.324939 0.605968-6.119664-7.091652-4.461386-4.440035-12.493509 12.153923-1.660311 13.811183 11.447299 25.173078 16.653945-1.333942 4.058764-1.333942 4.258042 0 8.325956 4.571193 4.579326 8.548618 1.158049 11.847889 6.93711-6.381979-1.52712-6.886274 1.038076-10.366521 1.387829 5.015501 9.847992 9.232874 22.312016 22.216444 20.810314 1.329875 6.545671-8.226317 1.301407-4.447152 5.548265 0.99029-3.828984 5.104973 6.351477 0 1.380712-1.084845 4.299727 8.784498 10.250615 16.294024 11.10568-1.517969 1.34716-2.999337 2.743122-4.450202 4.167553 8.181581 19.247609-16.816621 52.990656 2.968835 63.829954 0.084388 30.66644-8.536418 50.624739-1.488484 84.643318-0.389405 4.7054-7.624416 3.025772-7.40277 8.313755 1.405113 4.249908 7.205525 4.356664 7.40277 9.715818 8.2253 21.548456 7.362101 40.234832 10.366521 61.05938 3.136595 21.720282 24.476622 36.710866 20.726942 61.05328 9.803256 5.812613 14.956015 21.150917 14.819774 31.911927 11.090429-2.571296 24.222441 1.318691 28.129712 9.715818-0.931319 6.52432-6.923893 8.319855-7.410904 15.258999 13.804066 24.990068 40.181963 38.207484 53.309908 63.836055 9.328446-1.342076 9.166787 6.207102 13.323156 9.703617 68.895275 47.962954 167.972012 81.300329 273.935023 74.941735 2.302881-1.99888 5.141575-3.500582 5.913269-6.944227 9.432152-1.798585 17.782509-4.608811 28.138863-5.551315 12.730406-12.692787 37.818079-13.111677 56.259425-20.806247 24.933131-10.409224 53.192984-24.286494 78.480952-33.31399 35.653473-12.715155 75.480599-24.814174 100.683162-45.786147 28.772282-23.925557 36.635628-59.734589 53.308891-92.966224 6.743933-13.428895 14.848242-24.819258 20.738126-38.857171-7.923333 4.609828-15.361688 9.658881-19.248625 18.041773-4.537641-1.009607-4.364798 2.393369-8.886171 1.389862-7.602048 10.915553-19.471288 17.830295-34.057215 22.202209-9.330479 14.255492-31.32121 18.073292-47.381388 24.968716-12.527061 5.382539-21.711132 20.634421-35.539599 20.821498 0.174877-8.135828 9.562292-7.896898 11.840772-6.938127 0.71374-4.372931-4.548825-3.145745-2.956634-8.320872 5.794312-8.056524 14.085699-10.778295 20.727959-18.043807 3.101009-3.397893 3.743579-9.644647 7.406837-13.876254 13.315022-15.360671 36.031694-23.922507 48.864789-38.84802 6.98388-8.138878 10.833198-18.084476 19.245575-24.978884 6.4684-5.309335 14.583894-6.572106 20.736093-11.09958 12.261696-9.055964 19.866794-26.85779 32.573815-34.689618 11.151433-16.831872 24.559993-31.563191 42.935252-41.627745 3.251484-7.122154 6.165416-15.774478 1.488484-23.588005-15.28035 7.886731-19.581094 26.048478-32.581948 36.07338-14.528991 27.085537-42.76851 41.329845-63.675412 62.441109-3.486348-0.033552-4.355647 2.393369-8.879054 1.390879-6.714448 6.270139-14.183305 12.345067-22.301848 17.967553 0.833714 2.816326 1.253621 5.40084 1.253621 7.751506 0 4.893494-3.675459 7.591881-11.027392 8.086009-7.398703 0.317218-16.38553 1.64811-26.942178 3.975392-13.890488 5.526914-28.85667 9.381316-44.630132 10.786429 0.491078-0.640536 0.997407-1.268872 1.511869-1.888057-19.551609 2.199175-46.060663 3.298254-79.531228 3.298254-51.214439 0-103.405949-1.722331-156.573515-5.145642-53.17875-3.433478-90.90939-7.109953-113.203105-11.026376-22.304899-3.928623-40.430044-8.8211-54.396786-14.701834-13.966742-5.880734-23.280954-8.8211-27.933485-8.8211-4.662698 0-8.706211 0.976055-12.129521 2.940367-3.433478 1.953127-6.867973 2.940367-10.291284 2.940367-3.434495 0-6.741899-1.964311-9.924246-5.880734-3.193531-3.928623-4.777588-9.80834-4.777588-17.642201 0-7.845045 4.777588-16.424165 14.33378-25.72821 9.556192-9.315228 21.317659-13.966742 35.284402-13.966742s28.300522 2.940367 43.002356 8.8211c31.849907 13.231651 61.746686 22.661769 89.681187 28.300522 27.933485 5.628586 46.183687 8.453046 54.763823 8.453046 8.568953 0 12.863596-1.837221 12.863596-5.512679 0-3.675459-2.205275-8.338156-6.615825-13.966742-4.41055-5.63977-16.540072-15.931054-36.386531-30.873851-19.847476-14.953982-42.026301-29.897796-66.525291-44.840594-24.510174-14.953982-52.684622-30.02387-84.535546-45.207631-10.291284-5.398806-18.745347-8.086009-25.360155-8.086009-6.615825 0-12.990687 2.572313-19.112384 7.717954-6.133898 5.145642-10.544448 12.002431-13.231651 20.582568-2.699403 8.568953-5.145642 12.864613-7.350917 12.864613s-4.778604-4.778604-7.717954-14.334797c-2.940367-9.556192-4.41055-22.178825-4.41055-37.856714 0-15.689073 0.976055-27.818595 2.940367-36.387548 1.952111-8.57912 6.98388-15.803963 15.069888-21.684697 8.086009-5.880734 16.286907-8.8211 24.625064-8.8211 8.326972 0 16.172017 1.585073 23.522934 4.777588 7.350917 3.18133 28.783466 17.148073 64.320015 41.900227 35.525365 24.739953 75.829335 54.511676 120.922076 89.313133 3.422294 2.940367 6.856789 4.41055 10.291284 4.41055 5.384572 0 8.084992-3.432461 8.086009-10.2862-0.115907-0.250114-0.252148-0.501245-0.357887-0.750343-6.253871-14.650998-8.11346-45.319471 0.357887-55.665658l0-0.927253c0-15.689073-5.398806-24.752154-16.172017-27.198393-17.160273-3.433478-29.529742-6.500935-37.121623-9.188138-7.604081-2.698386-13.357724-4.043513-17.275163-4.043513-3.927606 0-8.706211 1.217019-14.33378 3.675459-5.63977 2.446239-13.231651 4.651514-22.787843 6.615825-9.556192 1.953127-14.827908 2.940367-15.803963 2.940367-5.880734 0-8.8211-2.331349-8.8211-6.982863 0-4.662698 2.688219-11.519487 8.086009-20.582568 5.386606-9.073248 8.086009-31.608943 8.086009-67.628436s-2.205275-58.071228-6.615825-66.157236-6.615825-18.503366-6.615825-31.241906c0-12.748707 0.609018-20.341604 1.837221-22.787843 1.218036-2.446239 4.043513-4.651514 8.453046-6.615825 4.41055-1.952111 9.063081-2.940367 13.966742-2.940367 4.893494 0 8.8211 1.22922 11.761467 3.675459 11.267339 9.303028 31.849907 15.677889 61.747703 19.112384 29.886612 3.422294 53.660677 5.145642 71.303895 5.145642 4.892478 0 17.389036-0.988256 37.48866-2.940367 20.089456-1.964311 41.648079-2.941384 64.68807-2.941384 23.028806 0 37.362586 2.814293 43.002356 8.453046 5.628586 5.628586 8.453046 11.761467 8.453046 18.377293s-4.41055 13.105577-13.231651 19.479422c-4.903662 3.422294-8.212083 7.097753-9.924246 11.026376-1.722331 3.917439-2.572313 10.774228-2.572313 20.582568 0 9.798173 0.609018 17.757091 1.838238 23.890989 1.217019 6.121697 4.41055 12.736506 9.556192 19.847476 5.145642 7.097753 10.773211 16.781035 16.907109 29.036631 6.121697 12.243395 9.188138 20.822515 9.188138 25.72821 0 4.893494-2.458439 8.453046-7.350917 10.658321-4.903662 2.205275-21.443733 6.121697-49.618181 11.761467-28.186649 5.627569-54.281896 9.188138-78.286758 10.658321-11.761467 0.481927-19.479422 4.651514-23.15488 12.496559-3.675459 7.833861-5.513696 27.198393-5.513696 58.072244 0 13.231651 0.849982 30.25365 2.572313 51.089382 1.712164 20.823531 3.423311 33.561054 5.146659 38.224768 1.711147 4.651514 5.386606 8.8211 11.026376 12.496559 5.627569 3.675459 12.370485 5.512679 20.21553 5.512679 32.825962 0 85.269621-4.662698 157.308607-13.966742 7.350917-0.988256 13.713578-1.470183 19.112384-1.470183 13.085242 0 22.991188 2.698386 29.742237 8.091092 4.608811-2.481824 10.402107-3.855419 15.414558-5.955971 0.334502-2.622132-1.668445-3.062374-1.476284-5.549281 38.244086-31.223605 64.215293-73.951445 99.208911-108.224206 6.081028-17.713372 34.098901-47.475943 34.049082-67.994457-0.024401-8.894305-9.124084-19.229308-11.840772-30.536299-1.787401-7.394636-2.164606-15.378972-2.969852-22.191026-1.067561-9.139335-3.743579-17.221277-4.438002-24.9738-1.537287-17.094186 8.265969-33.657643 7.407854-49.9537-2.081235-39.382817-32.408088-63.097913-42.946436-90.199717-27.244146-18.402711-42.956604-47.618285-74.032783-62.442126-0.562249-4.548825-4.328196-6.116614-5.925469-9.707684-32.683621-11.416798-50.651173-34.358166-93.280392-33.308906-4.446136-5.084638-9.328446-9.74937-16.288941-12.481308-15.405407 3.594121-28.639091-6.926943-37.01385-9.720901-12.179341-4.057747-36.685448-2.782775-48.864789-4.164503-50.41021-5.689589-113.041446 3.968275-158.439205 15.269166-12.225094 3.045089-25.478095 10.947071-34.049082 13.869137-19.56381 6.69208-34.958033 2.337449-41.461002 18.043807-5.309335-0.504295-5.428291-3.724261-10.366521-1.388845-18.081426 12.325749-38.676194 22.811227-57.749943 30.526132-16.39468 29.50534-51.777704 41.205804-68.107314 70.778248-34.645899 18.401694-46.931996 57.768244-74.034817 83.247356-7.925366-7.532911 8.674692-25.290001-2.958668-34.688601 6.263022-13.768481 11.901775-38.220702 8.886171-58.282706 11.552022-4.837574 17.618816-22.862064 2.950534-27.73929-0.708657-10.903352 12.591114-25.042937 10.371605-37.478493 8.663508-2.248994 12.245428 0.443292 14.807573 6.94016 5.992573-7.109953 6.112547-20.38634 10.358388-29.14237 8.028055-1.495602 6.415531 6.026125 13.325189 5.555382 2.567229-4.535607 8.008738-6.369778 13.324173-8.325956-3.076608-10.2862 7.258395-8.007721 10.372622-12.486392-1.752833-0.680189-3.365358-1.480351-4.445119-2.772607 9.9944 4.824357 8.655374-7.46479 11.846872-11.106697 6.594474-7.52681 23.781182-12.475208 20.727959-26.362646 11.393413 2.823444 8.134811 9.734119 14.80554 12.486392 5.820747-9.853076 11.116864-6.590407 22.210343-15.264083 2.326265 5.263582 9.934414 12.850379 8.889221 16.649878-0.144375-6.068828-7.22891 1.437648-7.40277 4.163486 6.640227 13.469564 0.978089 27.27058 2.951551 38.855138 12.279997-6.070861 14.067398-21.965313 23.697811-30.528165-1.080778-9.498239-9.958815-14.98855-10.360421-26.362646 6.773418-6.204052 16.306225-12.233227 28.129712-9.716835 13.57632-7.16079 15.466411-25.2717 22.21441-38.847004 7.049967-0.513446 8.106343-0.46566 14.79944-2.778708-0.191144-3.415177-0.222663-6.685979 1.4773-8.321889 16.27979-1.927709 20.707625 10.202829 35.543666 5.550298 23.169114 21.396964 57.261915 8.195815 88.83629 12.486392 1.684712 10.81693 9.868326 8.022972 19.252692 12.489442 2.854962-4.438002-0.869299-6.99913 1.480351-12.489442 2.029382-2.717704 8.93294-0.883533 8.886171-5.549281 10.077772 3.59107 21.933794 11.51542 11.840772 15.257982 12.28203 3.278936 19.398084 7.22586 31.101598 8.327989 2.182907-6.078995 7.096736-4.234657 4.440035-12.487408 21.188535 1.003507 35.629071 1.837221 51.820406 5.549281 2.328299-2.444205 0.419907-8.860753 4.451219-9.710734 9.819524-3.99471 12.160023 8.196832 25.172061 5.549281 2.40557-2.660768 2.549945-11.621159-1.487468-12.486392 8.807883-5.743476 14.524924 1.383762 26.656479 0 3.141678 2.139188 6.58939 3.99471 10.364488 5.549281 32.534162 1.183467 48.65331 19.728519 69.589698 30.523082 8.358491 4.313961 16.041877 7.512576 22.216444 12.487408 45.462829 36.72815 81.224074 86.78454 122.897572 126.271063 6.761217 15.397273 20.482929 24.285478 31.094481 36.08558 4.362764-0.903868 5.99359-8.960392 10.360421-5.555382 11.638444 6.753083 1.320725 35.517231 19.252692 33.299756 14.620496-1.806719 8.753997-25.255433 10.365505-40.237883 0.910985-8.489648 5.945804-15.574183 5.919369-23.592072-0.034569-11.196168-6.007824-19.614646 1.484418-24.9738 13.954542 7.034716 17.936034 25.312369 20.726942 38.851071 7.534944 36.580725 5.76381 80.335457 8.882104 117.945107 0.28875 3.510749 2.925116 7.706771 2.959685 11.097546 0.094555 7.690503-4.384115 14.536108-4.445119 22.202209C993.326443 329.231082 1021.797775 351.388555 1006.831593 378.474092zM512.285688 316.271913c15.183761 0 29.644632-0.620202 43.369394-1.838238 13.713578-1.22922 22.902733-2.698386 27.56543-4.41055 4.651514-1.722331 6.98388-4.169587 6.98388-7.350917 0-3.192514-1.103146-9.073248-3.308421-17.642201-2.205275-8.57912-3.801532-15.803963-4.777588-21.684697-0.988256-5.880734-3.675459-10.784395-8.086009-14.701834-4.41055-3.927606-8.8211-5.880734-13.231651-5.880734l-28.668576 0.735092c-37.248713 0-75.472465-4.169587-114.674305-12.496559-4.904678-0.987239-9.188138-1.469167-12.863596-1.469167-3.675459 0-5.512679 2.446239-5.512679 7.3499 0 0.977072 0.735092 6.98388 2.205275 18.010255 1.470183 11.026376 2.446239 21.432549 2.940367 31.241906 0 10.773211 14.207706 18.492182 42.635319 23.15488C475.278955 313.940564 497.089726 316.271913 512.285688 316.271913zM153.940176 114.831369c-5.243247 0.749326-3.635806-4.913829-8.879054-4.166536-3.99471 3.17218-2.868179 7.011331-4.444102 9.719885 2.530627 1.801636 8.34324-0.863199 13.323156 1.382745C152.902101 117.498237 152.902101 119.101611 153.940176 114.831369zM275.362481 69.036071c-3.093892 0.803212-4.228557 3.443645-8.884137 2.777691-0.336536 2.46759 1.486451 6.954395-2.958668 5.547248 4.883327 4.565092-3.976409 3.319605-2.968835 8.326972 5.316452 0.81643 7.175024-1.605408 10.372622-2.775657C267.576406 77.289839 276.51443 79.06809 275.362481 69.036071zM416.026294-14.213318C407.651536 8.220704 438.270189-9.841403 416.026294-14.213318L416.026294-14.213318zM444.168207-14.213318c0.118957 1.968378 0.233847 3.923539-1.488484 4.163486 0.384322 3.245384 6.503986 0.795078 7.40887 0C448.800403-12.090398 447.862983-14.453265 444.168207-14.213318zM698.850538 162.008395c3.58802-6.898475 14.327679-3.276903 13.323156 5.548265C707.206995 170.850847 698.146965 168.388341 698.850538 162.008395zM812.852789 239.707486c-0.328402-2.616032 1.673528-3.059324 1.490518-5.542164l5.917336 0c2.022265 1.772151 2.022265 6.546688 0 8.327989C816.571966 242.709873 815.672165 240.309387 812.852789 239.707486zM854.318874 195.313235c-1.901275-1.830104-1.901275-5.116157 0-6.942194l5.927503 0C861.349523 193.577686 858.566749 195.135308 854.318874 195.313235zM915.024435 81.52958c13.305871-1.370544 21.843306 1.729448 28.137846 6.932027C935.320286 93.456773 920.501529 87.298474 915.024435 81.52958zM368.651006 714.266624c3.780181 0.149458 7.05505 0.786945 8.886171 2.771591C374.93843 720.435091 369.095315 719.857591 368.651006 714.266624zM164.312798 318.810674l0 4.157386c-4.181787-1.145848-3.840168 1.957194-7.410904 1.384779C155.763163 318.944881 161.805556 316.622683 164.312798 318.810674zM322.744886 704.550806c-11.621159 0.264348-14.770971-7.429205-23.691711-9.709717C307.386248 692.458903 320.338299 696.846069 322.744886 704.550806zM344.953195 463.11741l0 9.709717c-17.312782 18.621306-35.455211-14.179238-14.80554-16.653945C337.80969 455.262198 339.267673 459.571075 344.953195 463.11741zM812.569123 420.654934c-7.108937 0-12.255595 0.609018-15.436926 1.838238-3.193531 1.217019-6.742916 2.940367-10.658321 5.145642-3.928623 2.205275-12.990687 4.651514-27.198393 7.350917-14.21889 2.688219-26.348411 4.043513-36.386531 4.043513-10.05032 0-23.281971 3.055257-39.694952 9.189155-16.424165 6.121697-30.758962 13.105577-43.003373 20.949605-51.455402 31.355779-80.618107 47.044852-87.474896 47.044852-2.941384 0-5.63977-1.596257-8.086009-4.777588-2.458439-3.193531-3.675459-6.374862-3.675459-9.556192 0-3.193531 2.205275-6.500935 6.615825-9.924246 14.701834-11.278523 35.89342-29.162704 63.58594-53.660677 27.68032-24.510174 43.002356-39.212008 45.942723-44.105502 10.291284-17.160273 22.294731-30.26585 36.019493-39.327914 13.714595-9.073248 28.784483-13.598688 45.208648-13.598688 16.412981 0 34.6642 11.026376 54.763823 33.07811 20.08844 22.052751 30.13876 36.019493 30.13876 41.900227C823.228461 419.184751 819.667892 420.654934 812.569123 420.654934zM464.513878-42.966283l3.073558 0 0 0.739159-1.000457 0 0 3.562602-0.833714 0 0-3.562602-1.239387 0 0 3.252501-0.833714 0 0-6.088145c0-2.025315-0.2857-3.535151-0.858115-4.527474 0.2857-0.237913 0.516496-0.46871 0.691373-0.691373 0.623252 1.219052 0.954704 2.779724 0.995373 4.682016l1.316658 0 0-4.515273 0.833714 0 0 5.254431-2.144272 0L464.514895-42.966283zM473.997883-42.989667l0 0.714757-5.027702 0 0 1.966345c1.397996 0.023385 3.220983 0.162676 5.46896 0.416857l-0.321285 0.8815c-1.668445-0.293833-3.662241-0.460576-5.981389-0.500228l0-4.742002c0-1.239387-0.087438-2.220526-0.262315-2.943417-0.18301-0.746276-0.528697-1.52102-1.037059-2.323215 0.206395-0.230796 0.404656-0.484978 0.5958-0.762543 1.024858 1.389862 1.537287 3.189464 1.537287 5.39779l0 1.822987 0.566315 0c0.230796-1.898224 0.741192-3.40196 1.531187-4.510189-0.647653-0.655787-1.568806-1.272939-2.764473-1.852472 0.222663-0.2857 0.416857-0.568349 0.5836-0.845915 1.151949 0.662904 2.0548 1.334959 2.710587 2.013114 0.564282-0.619185 1.360377-1.243454 2.389302-1.870773 0.198261 0.262315 0.441258 0.556148 0.726958 0.8815-1.112296 0.504295-1.958211 1.060443-2.537744 1.668445C473.072663-46.425179 473.680665-44.896025 473.997883-42.989667zM470.37021-43.060838l2.722788 0c-0.274516-1.608458-0.756443-2.885464-1.447815-3.831017C470.993462-45.895465 470.568471-44.61846 470.37021-43.060838zM480.098229-44.872641c-0.437191 0.52463-1.012657 1.12348-1.727415 1.799602l-0.512429-0.476844 0 1.572873 1.679629 0 0 0.833714-1.679629 0 0 2.525543-0.905901 0 0-2.525543-1.858572 0 0-0.833714 1.70403 0c-0.404656-1.53322-1.012657-2.919016-1.822987-4.158403 0.158609-0.357887 0.293833-0.706623 0.404656-1.048243 0.619185 0.921152 1.143815 2.049716 1.572873 3.383659l0-6.529404 0.905901 0 0 6.564989c0.484978-0.508362 0.99334-1.100096 1.525087-1.775201L480.098229-44.872641zM486.067417-40.261796l0 0.869299-6.767317 0 0-0.893701 0.739159 0c0.2857-2.93935 1.028925-5.162926 2.227643-6.672762-0.8815-0.8815-2.160539-1.716231-3.836101-2.502159 0.270449-0.318235 0.492095-0.619185 0.666971-0.905901 1.620659 0.818463 2.88343 1.699963 3.789332 2.645517 0.810329-0.866249 1.898224-1.652177 3.264702-2.3588 0.191144 0.2857 0.456509 0.615118 0.798129 0.989273-1.414264 0.564282-2.549945 1.279039-3.40806 2.144272C484.852432-45.253912 485.694279-43.025253 486.067417-40.261796zM480.991929-40.285181l4.06283 0c-0.333486-2.478774-1.048243-4.452236-2.144272-5.921403C481.869362-44.824855 481.23086-42.850376 480.991929-40.285181zM493.169237-41.970909c-0.210462 0-0.391439-0.073204-0.541914-0.220629s-0.22673-0.323318-0.22673-0.529713 0.073204-0.384322 0.220629-0.532764 0.329419-0.223679 0.548014-0.223679 0.401606 0.074221 0.548014 0.223679 0.220629 0.326369 0.220629 0.532764-0.075238 0.383305-0.22673 0.529713S493.379699-41.970909 493.169237-41.970909zM493.169237-47.339214c-0.210462 0-0.391439-0.073204-0.541914-0.220629s-0.22673-0.325352-0.22673-0.535814c0-0.214529 0.075238-0.394489 0.22673-0.538864s0.331452-0.217579 0.541914-0.217579 0.391439 0.072187 0.541914 0.217579 0.22673 0.324335 0.22673 0.538864c0 0.210462-0.075238 0.389405-0.22673 0.535814S493.379699-47.339214 493.169237-47.339214zM506.776059-48.702641l1.966345 6.588374-1.131614 0-1.287173-4.891461c-0.064054-0.230796-0.099639-0.433125-0.106756-0.608001l-0.053886 0c-0.023385 0.262315-0.05592 0.464643-0.095572 0.608001l-1.381728 4.891461-1.078745 0-1.41833-4.867059c-0.059987-0.194194-0.097606-0.401606-0.112856-0.619185l-0.047786 0c-0.020334 0.254181-0.049819 0.454476-0.089472 0.601901l-1.316658 4.88536-1.214986 0 1.977529-6.588374 1.1794 0 1.41833 4.635246c0.079304 0.246047 0.125057 0.452442 0.137258 0.619185l0.023385 0c0.016268-0.222663 0.051853-0.433125 0.106756-0.631386l1.310558-4.623046L506.776059-48.701625zM515.956063-47.004712c-0.064054-0.230796-0.099639-0.433125-0.106756-0.608001l-0.053886 0c-0.023385 0.262315-0.05592 0.464643-0.095572 0.608001l-1.381728 4.891461-1.078745 0-1.41833-4.867059c-0.059987-0.194194-0.097606-0.401606-0.112856-0.619185l-0.047786 0c-0.020334 0.254181-0.049819 0.454476-0.089472 0.601901l-1.316658 4.88536-1.214986 0 1.977529-6.588374 1.1794 0 1.41833 4.635246c0.079304 0.246047 0.125057 0.452442 0.137258 0.619185l0.023385 0c0.016268-0.222663 0.051853-0.433125 0.106756-0.631386l1.310558-4.623046 1.214986 0 1.966345 6.588374-1.131614 0L515.956063-47.004712zM525.588509-47.004712c-0.064054-0.230796-0.099639-0.433125-0.106756-0.608001l-0.053886 0c-0.023385 0.262315-0.05592 0.464643-0.095572 0.608001l-1.381728 4.891461-1.078745 0-1.41833-4.867059c-0.059987-0.194194-0.097606-0.401606-0.112856-0.619185l-0.047786 0c-0.020334 0.254181-0.049819 0.454476-0.089472 0.601901l-1.316658 4.88536L518.67275-42.112234l1.977529-6.588374 1.1794 0 1.41833 4.635246c0.079304 0.246047 0.125057 0.452442 0.137258 0.619185l0.023385 0c0.016268-0.222663 0.051853-0.433125 0.106756-0.631386l1.310558-4.623046 1.214986 0 1.966345 6.588374-1.131614 0L525.588509-47.004712zM528.978268-47.327013c-0.218596 0-0.401606-0.073204-0.548014-0.220629s-0.220629-0.327385-0.220629-0.541914c0-0.206395 0.072187-0.384322 0.217579-0.532764s0.326369-0.223679 0.544964-0.223679c0.22673 0 0.41279 0.074221 0.560215 0.223679s0.220629 0.326369 0.220629 0.532764c0 0.210462-0.073204 0.390422-0.220629 0.538864S529.200931-47.327013 528.978268-47.327013zM534.792915-39.278623 531.510929-40.231294 531.510929-41.303938 533.631816-40.689837 533.631816-47.696084 531.563798-47.696084 531.563798-48.702641 536.854832-48.702641 536.854832-47.696084 534.792915-47.696084ZM538.52226-44.598125l3.508716 0 0-0.899801-3.508716 0 0 0.899801ZM546.958022-43.889468l0 0.023385c1.231253 0.345686 1.846371 1.122464 1.846371 2.329315 0 0.655787-0.237913 1.188551-0.714757 1.599307s-1.10823 0.616135-1.894157 0.616135c-0.806262 0-1.510852-0.174877-2.114787-0.52463l0-1.102129c0.572416 0.437191 1.181434 0.655787 1.829087 0.655787 1.131614 0 1.69793-0.506329 1.69793-1.518986 0-1.096029-0.741192-1.644043-2.222559-1.644043l-0.733058 0 0-0.964871 0.768644 0c1.672512 0 2.508259-0.5836 2.508259-1.751816 0-0.52463-0.186061-0.942503-0.557165-1.253621s-0.874383-0.467693-1.509836-0.467693c-0.794062 0-1.506785 0.244014-2.139188 0.733058l0-1.208885c0.535814-0.325352 1.24142-0.488028 2.114787-0.488028 0.99334 0 1.788418 0.254181 2.386252 0.762543s0.896751 1.177367 0.896751 2.008031c0 0.5958-0.193178 1.092979-0.58055 1.492551S547.624993-43.960639 546.958022-43.889468zM550.955782-44.598125l3.508716 0 0-0.899801-3.508716 0 0 0.899801ZM555.864527-40.50581 560.475372-40.50581 557.043927-48.702641 558.252812-48.702641 561.8632-39.880524 561.8632-39.474851 555.864527-39.474851ZM563.936301-47.327013c-0.218596 0-0.401606-0.073204-0.548014-0.220629s-0.220629-0.327385-0.220629-0.541914c0-0.206395 0.072187-0.384322 0.217579-0.532764s0.326369-0.223679 0.544964-0.223679c0.22673 0 0.41279 0.074221 0.560215 0.223679s0.220629 0.326369 0.220629 0.532764c0 0.210462-0.073204 0.390422-0.220629 0.538864S564.158964-47.327013 563.936301-47.327013zM566.935638-42.951032c-0.625285-0.660871-0.938437-1.532204-0.938437-2.611965 0-0.973005 0.289766-1.765033 0.869299-2.377102s1.346143-0.917085 2.29983-0.917085c0.71069 0 1.318691 0.150475 1.822987 0.452442l0 1.072644c-0.504295-0.373138-1.040109-0.560215-1.608458-0.560215-0.671038 0-1.204818 0.214529-1.599307 0.643587s-0.59275 1.022825-0.59275 1.781301c0 0.770677 0.209445 1.386812 0.628336 1.849422s0.961821 0.694423 1.629809 0.694423c0.568349 0 1.083828-0.17081 1.548471-0.512429l0 1.156016c-0.429058 0.214529-0.945554 0.321285-1.548471 0.321285C568.398704-41.959725 567.56194-42.290161 566.935638-42.951032zM575.499507-41.959725c-1.040109 0-1.864672-0.315185-2.472674-0.944537s-0.910985-1.488484-0.910985-2.576379c0-1.012657 0.293833-1.829087 0.8815-2.448272s1.374611-0.929286 2.3588-0.929286c1.008591 0 1.81282 0.319251 2.412687 0.958771s0.899801 1.479334 0.899801 2.52046c0 1.068577-0.280616 1.905341-0.842864 2.511309S576.48878-41.959725 575.499507-41.959725zM576.953423-47.252792c-0.349753-0.427024-0.858115-0.640536-1.525087-0.640536-0.647653 0-1.163133 0.218596-1.546438 0.655787s-0.574449 1.035025-0.574449 1.793502c0 0.782878 0.190127 1.397996 0.569366 1.846371s0.896751 0.673072 1.551521 0.673072c0.666971 0 1.175333-0.214529 1.525087-0.643587s0.52463-1.044176 0.52463-1.846371C577.478053-46.212683 577.303176-46.825768 576.953423-47.252792zM587.622928-41.959725c-0.973005 0-1.70403-0.448375-2.192058-1.346143-0.131157 0.41279-0.365004 0.741192-0.702557 0.983172s-0.726958 0.362971-1.1672 0.362971c-0.901834 0-1.587107-0.399573-2.0548-1.197701l-0.023385 0 0 1.042142-1.1672 0 0-6.588374 1.1672 0 0 3.747646c0 0.591734 0.146408 1.078745 0.438208 1.460016s0.659854 0.572416 1.105179 0.572416c0.964871 0 1.447815-0.625285 1.447815-1.876873l0-3.902188 1.1672 0 0 3.75273c0 0.548014 0.152509 1.022825 0.458543 1.423414s0.673072 0.601901 1.102129 0.601901c0.508362 0 0.873366-0.153525 1.096029-0.461593s0.333486-0.81948 0.333486-1.534237l0-3.783231 1.1672 0 0 4.06283C589.797702-42.852409 589.072777-41.959725 587.622928-41.959725z"  horiz-adv-x="1024" />

    
    <glyph glyph-name="gongzuochuanzhen" unicode="&#58915;" d="M794.859154 575.198625l-31.426467-2.639823 0 167.607824-502.823472 0 0-167.607824-41.901956 0c-52.000327 0-83.803912-39.681152-83.803912-91.68148l0-285.478026 41.901956 0 83.803912 0 0-167.607824 502.823472 0 0 167.607824 83.803912 0 41.901956 0L889.138555 480.919224C889.138555 532.87765 846.817579 575.198625 794.859154 575.198625zM302.511171 698.26467l419.01956 0 0-125.705868-419.01956 0L302.511171 698.26467zM721.530731 69.73533l-419.01956 0 0 167.607824 419.01956 0L721.530731 69.73533zM847.236599 237.343154l-83.803912 0 0 41.901956-502.823472 0 0-41.901956-83.803912 0 0 251.411736c0 25.979213 15.922743 41.901956 41.901956 41.901956l41.901956 0 502.823472 0 41.901956 0c26.021115 0 41.901956-15.922743 41.901956-41.901956L847.236599 237.343154zM512.020951 449.618463 321.073738 449.618463C309.383092 449.618463 299.871348 440.190523 299.871348 428.541779c0-11.690646 9.511744-21.118586 21.20239-21.118586l190.947213 0c11.732548 0 21.160488 9.469842 21.160488 21.118586C533.181439 440.148621 523.753499 449.618463 512.020951 449.618463z"  horiz-adv-x="1024" />

    
    <glyph glyph-name="lianxiren" unicode="&#58916;" d="M704.041316 455.326489c-13.027711 0-23.078625-5.509481-30.077016-16.565281-6.998391-11.0558-10.498098-25.684986-10.498098-43.925419 0-20.138666 2.977821-35.139312 8.785084-44.966121 5.881964-9.827833 15.485693-14.740726 28.811186-14.740726 6.924713 0 13.028735 1.301645 18.240433 3.944845 5.210675 2.6432 10.423397 6.476505 15.857153 11.465123L735.160057 447.658855c-5.509481 2.681062-10.571776 4.652973-15.261589 5.844102S709.996958 455.326489 704.041316 455.326489zM855.060845 708.872089 168.939155 708.872089c-63.131853 0-114.353444-51.183729-114.353444-114.353444l0-457.413777c0-63.132876 51.221592-114.353444 114.353444-114.353444l76.236312 0 0 76.235288L359.528911 98.986711l0-76.235288 304.942177 0 0 76.235288 114.353444 0 0-76.235288 76.236312 0c63.132876 0 114.353444 51.220568 114.353444 114.353444L969.414289 594.518644C969.414289 657.688359 918.193721 708.872089 855.060845 708.872089zM455.829188 276.499637c0-40.314171-77.203336-49.470715-149.642159-49.470715-72.365144 0-150.535505 9.156544-150.535505 49.470715 0 7.966439 0 7.444553 0 15.449877 0 29.592992 57.102532 53.453423 102.516862 69.868277 3.275603 1.228991 18.9854 9.753131 10.272971 32.79594-22.556739 23.003923-37.670971 47.684022-37.670971 84.350107 0 56.209186 31.56695 86.956468 74.970482 86.956468s74.523297-30.747281 74.523297-86.956468c0-36.517705-14.219863-61.047378-36.628222-84.127026l0.148379 0c-8.635681-26.093285 5.136997-32.310893 7.296173-33.019021 47.722908-15.782451 104.749716-39.382962 104.749716-69.868277C455.829188 283.945213 455.829188 284.467099 455.829188 276.499637zM860.310406 345.626018c-5.2864-18.947538-11.762905-32.273031-19.431561-44.072775l-98.495268 0-3.051499 12.95301c-3.499707-2.308579-6.924713-4.502547-10.348696-6.550183-3.426029-2.047636-7.221472-3.797489-11.390421-5.174859-4.764514-1.675152-9.082866-2.90312-13.178137-3.684926-4.02057-0.74599-9.530051-1.155313-16.527418-1.155313-10.200316 0-19.729344 2.196015-28.662807 6.551206-8.859785 4.355191-16.527418 10.646478-22.930245 18.872836-6.402827 7.965415-11.390421 18.165732-15.038508 30.56104-3.722788 12.358469-5.583159 25.833365-5.583159 40.35101 0 14.889105 2.307555 28.439726 6.848988 40.648792 4.616134 12.173251 10.721179 22.707165 18.388812 31.603789 7.221472 8.077979 15.858176 14.517645 25.686009 19.24532 9.901511 4.764514 20.249183 7.109931 31.045063 7.109931 8.56098 0 16.228613-1.638313 23.003923-4.988618 6.700609-3.350304 11.837606-6.77531 15.485693-10.236132l0 11.762905 44.594661 0.186242 0-155.635663 30.300097 0c3.871167 8.487302 7.073092 18.463514 9.530051 30.039153 2.53166 11.576663 3.722788 23.340591 3.722788 35.251875 0 21.068851-2.90312 39.495526-8.859785 55.31584-5.880941 15.783475-14.145162 28.997428-24.791639 39.643905-10.79588 10.831696-23.376407 18.798135-37.81935 24.009833-14.517645 5.211698-30.151717 7.780197-46.90324 7.780197-15.931854 0-30.971385-2.866281-45.115524-8.673543-14.146185-5.770424-27.323299-14.368242-39.309284-25.796526-11.391445-11.0558-20.547988-24.64326-27.54638-40.835034-6.924713-16.192797-10.348696-34.097586-10.348696-53.752228 0-20.920472 3.276626-39.531342 9.827833-55.874565 6.476505-16.304338 15.412015-30.001291 26.876114-41.020252 11.019984-10.906397 23.898293-19.170618 38.566364-24.753777 14.666024-5.622044 30.001291-8.375761 46.00887-8.375761 11.316743 0 23.52581 0.967024 36.777625 2.866281 13.325493 1.935072 25.536606 4.503571 36.702923 7.741311l0-41.058115c-12.283768-2.680039-24.046672-4.689812-35.438117-5.954619-11.390421-1.303692-24.121374-1.937119-38.266535-1.937119-23.823592 0-45.936215 4.094248-66.334801 12.246929-20.323884 8.151657-37.893029 19.617803-52.485375 34.395368-14.81645 14.890128-26.356274 32.721239-34.618449 53.565986-8.264221 20.772093-12.43317 43.664475-12.43317 68.530816 0 23.638373 4.318352 45.674249 12.954033 66.073858 8.56098 20.472264 20.399609 38.266535 35.511795 53.565986 14.890128 15.038508 32.608675 26.801413 53.081962 35.325553 20.399609 8.562003 42.212404 12.842493 65.366753 12.842493 23.003923 0 44.446281-3.982708 64.321958-11.949146 19.953448-7.9296 37.075407-19.133779 51.519374-33.538861 14.667048-14.369266 26.13217-31.603789 34.396391-51.704592 8.263198-20.100804 12.431124-42.584887 12.431124-67.488067C868.349499 382.849804 865.66946 364.574578 860.310406 345.626018z"  horiz-adv-x="1024" />

    
    <glyph glyph-name="iconfont14" unicode="&#58917;" d="M207.166293 703.007521 207.166293 703.007521c6.864338 6.864338 17.992793 6.864338 24.857131 0l267.546475-267.546475c6.864338-6.864338 17.992793-6.864338 24.857131 0l267.548522 267.547499c6.864338 6.864338 17.992793 6.864338 24.856108 0l0.002047-0.002047c6.864338-6.864338 6.864338-17.992793 0-24.857131l-292.4077-292.40463c-6.864338-6.864338-17.992793-6.864338-24.857131 0l-292.403606 292.40463C200.301955 685.013705 200.301955 696.143183 207.166293 703.007521zM207.166293 382.252193 207.166293 382.252193c6.864338 6.864338 17.992793 6.864338 24.857131 0l267.546475-267.546475c6.864338-6.864338 17.992793-6.864338 24.857131 0l267.548522 267.547499c6.864338 6.864338 17.992793 6.864338 24.856108 0l0.002047-0.002047c6.864338-6.864338 6.864338-17.992793 0-24.857131l-292.4077-292.403606c-6.864338-6.864338-17.992793-6.864338-24.857131 0l-292.403606 292.403606C200.301955 364.2594 200.301955 375.388878 207.166293 382.252193zM511.998977 160.414759"  horiz-adv-x="1024" />

    
    <glyph glyph-name="fanhui2" unicode="&#58918;" d="M461.141333 641.467733l0-106.24 0-33.792 33.792-0.341333c234.8032-2.269867 367.069867-106.7008 401.5104-318.327467-128.989867 149.1968-277.7088 149.265067-401.169067 149.2992L461.141333 332.066133l0-34.133333 0-104.704L144.708267 417.365333 461.141333 641.467733M495.274667 707.498667l-409.6-290.133333 409.6-290.133333L495.274667 297.9328c163.925333-0.068267 315.921067-8.328533 444.450133-237.533867 0 145.5616-24.046933 470.766933-444.450133 474.8288L495.274667 707.498667 495.274667 707.498667z"  horiz-adv-x="1024" />

    
    <glyph glyph-name="rili1" unicode="&#58919;" d="M101.7856 793.6l0-819.2L921.088-25.6 921.088 793.6 101.7856 793.6zM886.954667 759.466667l0-153.6L135.918933 605.866667 135.918933 759.466667 886.954667 759.466667zM135.918933 8.533333 135.918933 571.733333 886.954667 571.733333l0-563.2L135.918933 8.533333zM357.768533 708.266667l51.217067 0 0-51.2-51.217067 0 0 51.2ZM613.888 708.266667l51.2 0 0-51.2-51.2 0 0 51.2ZM394.478933 450.304c-6.109867-41.540267-25.873067-42.257067-65.621333-43.690667l-6.161067-0.238933 0-28.945067 67.345067 0 0-189.320533 35.7376 0L425.7792 455.765333l-30.498133 0L394.478933 450.304zM596.053333 369.851733c-15.872 0-32.170667-5.188267-45.090133-13.8752l12.151467 62.583467 112.520533 0 0 33.911467-139.144533 0-27.2384-144.9472 30.976 0 1.877333 2.952533c10.8032 16.810667 30.481067 27.272533 51.4048 27.272533 34.048 0 58.760533-25.1904 58.760533-59.869867 0-31.368533-19.677867-63.1296-57.2928-63.1296-32.1536 0-55.261867 21.691733-56.2176 52.7872l-0.2048 6.1952-35.7888 0 0.1536-6.5536c1.143467-50.568533 37.461333-84.5312 90.231467-84.5312 53.1968 0 94.8736 40.721067 94.8736 92.689067C688.008533 331.861333 651.042133 369.851733 596.053333 369.851733z"  horiz-adv-x="1024" />

    
    <glyph glyph-name="fanhui3" unicode="&#58920;" d="M874.937033 686.904775l-568.958246 0c-14.128789 0-25.582655-11.453866-25.582655-25.582655s11.453866-25.582655 25.582655-25.582655l568.958246 0c8.463766 0 15.349593-6.885827 15.349593-15.349593l0-368.390231c0-8.463766-6.885827-15.349593-15.416108-15.349593l-172.757622-0.454348L163.534564 236.195699l60.931744 60.931744c9.990538 9.990538 9.990538 26.188452 0 36.178991-9.990538 9.990538-26.188452 9.990538-36.178991 0L83.682911 228.702028c-0.771573-0.771573-1.475608-1.583055-2.127454-2.422166-0.839111-0.651846-1.64957-1.354857-2.420119-2.125407-9.990538-9.990538-9.990538-26.188452 0-36.178991l113.700575-113.700575c4.995781-4.995781 11.541871-7.492648 18.090007-7.492648 6.54609 0 13.095249 2.49789 18.090007 7.492648 9.990538 9.990538 9.990538 26.188452 0 36.178991l-74.576509 74.576509 547.739992 0L874.937033 185.484737c36.676317 0 66.514903 29.838585 66.514903 66.514903L941.451936 620.389872C941.451936 657.066189 911.61335 686.904775 874.937033 686.904775z"  horiz-adv-x="1024" />

    
    <glyph glyph-name="qq1" unicode="&#58921;" d="M831.4 173.4l-40-40.2c0 0 138.2-173.8 40-241.2-98.4-67.4-324 57.2-319.6 58.6 3.4-1-221.2-109.4-319.6-43-98.4 66.4 40 237.4 40 237.4l-40 39.6c0 0-42-70.8-119.8-39.6-24.2 9.8-40 39.6-40 61.4 0 50.2 40 96.8 40 96.8s110.8 89.4 119.8 198C200.8 603.4 259 866.6 472 896l79.8 0c212.2-27.8 271.2-296.6 279.6-400.8 9-110.2 119.8-201 119.8-201s38.4-42.4 40-87.4c1.6-45.8-18.8-69.4-40-73.4C863.8 116.6 831.4 173.4 831.4 173.4z"  horiz-adv-x="1024" />

    
    <glyph glyph-name="xinlang" unicode="&#58922;" d="M711.212646 391.572466c-32.422434 6.349615-16.673751 23.904433-16.673751 23.904433s31.720446 52.641941-6.282077 90.915639c-47.084365 47.40159-161.495114-6.03239-161.495114-6.03239-43.696198-13.645788-32.127721 6.236028-25.937742 40.080857 0 39.877219-13.556761 107.364263-129.980353 67.509557-116.288516-40.080857-216.151945-180.498934-216.151945-180.498934-69.451792-93.312222-60.233849-165.429727-60.233849-165.429727 17.32969-159.202908 185.311543-202.899106 315.990814-213.246779 137.457652-10.891048 322.995345 47.716768 379.252627 168.037111C845.959559 337.349517 743.747643 385.043772 711.212646 391.572466zM420.616198 93.645053c-136.462998-6.417153-246.787686 62.49331-246.787686 154.212244 0 91.795683 110.323665 165.42768 246.787686 171.753759 136.554072 6.326079 247.104911-50.314942 247.104911-141.954059C667.721109 185.961598 557.170271 99.880057 420.616198 93.645053zM393.414673 359.152079C256.137123 342.973608 271.997346 213.513094 271.997346 213.513094s-1.400906-41.017182 36.804231-61.893652c80.319304-43.786249 163.010631-17.261129 204.809619 37.053917C555.409161 243.021152 530.872325 375.21594 393.414673 359.152079zM358.778828 177.422108c-25.644053-3.027963-46.27186 11.882632-46.27186 33.44881 0 21.509896 18.322297 44.0124 43.988864 46.701648 29.416983 2.824325 48.576345-14.256702 48.576345-35.834136C405.0732 200.228533 384.309294 180.357973 358.778828 177.422108zM439.685509 246.839107c-8.676613-6.529717-19.361977-5.625114-23.948435 2.214435-4.79112 7.636934-2.982938 19.881816 5.782703 26.321482 10.190083 7.614421 20.763906 5.423523 25.350364-2.213411C451.4566 265.32104 448.180997 253.573485 439.685509 246.839107zM778.04375 447.627133c11.070126 0 20.470217 8.246825 22.051225 19.001773 0.181125 0.791016 0.292666 1.490957 0.292666 2.394537 16.764825 151.781892-123.494639 125.664048-123.494639 125.664048-12.449543 0-22.437012-10.144034-22.437012-22.797215 0-12.472056 9.987468-22.61609 22.437012-22.61609 100.743472 22.412452 78.512145-79.031984 78.512145-79.031984C755.405147 457.681116 765.572718 447.627133 778.04375 447.627133zM761.686201 712.534502c-48.485271 11.432377-98.371448 1.582031-112.334461-1.107217-1.084705-0.112564-2.077312-1.12973-3.072989-1.333368-0.496304-0.090051-0.813528-0.60989-0.813528-0.60989-13.758352-3.90903-23.835871-16.763802-23.835871-31.924083 0-18.09717 14.572904-32.963763 32.716122-32.963763 0 0 17.645892 2.39556 29.619598 7.094582 11.884678 4.812609 112.333438 3.591805 162.220638-80.771605 27.201525-61.567217 11.973706-102.776781 10.05296-109.397572 0 0-6.483668-15.995299-6.483668-31.765471 0-18.164708 14.59644-29.597085 32.624025-29.597085 15.071254 0 27.744901 2.078335 31.451316 27.743878l0.180102 0C967.580524 607.678362 848.467683 692.156382 761.686201 712.534502z"  horiz-adv-x="1024" />

    
    <glyph glyph-name="lioshie" unicode="&#58923;" d="M792.546046 105.772254 533.54213 105.772254l0-40.491203-41.739637 0L491.802494 277.227208l342.486258 0 0-140.115178c48.770773 56.570413 81.226976 127.603213 90.058109 205.79404-6.983041-12.682857-13.106506-24.457018-18.35095-35.311227-41.741683 17.715477-80.095199 38.168298-115.054409 61.369719l0-37.960567L535.146675 331.003995l0 36.378535c-36.213783-25.307386-75.988672-48.399313-119.333876-69.27783-7.491625 15.604396-15.343453 30.15581-23.546276 43.654242 113.803929 49.768497 197.105147 111.77062 249.907747 186.006368l39.065737 0c57.69912-76.899414 139.234111-133.115764 244.582461-168.677701 0.629333 8.962116 0.957815 18.007119 0.957815 27.128871 0 72.702835-20.329001 140.655484-55.609529 198.490703L740.638839 584.707185c-11.237949-25.099654-23.905456-48.508807-37.996382-70.227458-10.700713 10.962679-22.298865 21.718651-34.782178 32.266891 30.677697 45.552475 51.907207 94.269014 63.680345 146.147568l40.816614 0c-63.49308 47.130414-142.124951 75.015507-227.272213 75.015507-210.803123 0-381.693212-170.890089-381.693212-381.693212s170.890089-381.693212 381.693212-381.693212c94.418416 0 180.825368 34.286897 247.459998 91.083461L792.545022 105.772254zM798.432103 576.482873c19.620873-26.997887 36.564777-53.570079 50.839899-79.716576l-35.320437-25.939789c-13.558807 26.572192-29.612435 53.777811-48.160883 81.614809L798.432103 576.482873zM560.833707 478.418416c-12.131295 24.461111-26.400277 49.768497-42.811038 75.921133l30.503734 22.143323c16.764825-24.041556 32.108279-47.876404 46.02115-71.492264L560.833707 478.418416zM501.433852 692.895209l46.556339 0c-7.314593-22.356171-15.343453-43.86709-24.079418-64.532759l155.188478 0 0-43.654242L503.841691 584.708208c-21.940708-43.447535-47.539736-82.880639-76.790944-118.310569-9.992585 12.653181-20.335141 24.673959-31.0379 36.062334C442.033997 555.604356 477.174332 619.079016 501.433852 692.895209zM533.54213 232.940562l259.003915 0 0-82.880639-259.003915 0 0 82.880639ZM758.297011 628.36245l81.849146 0c-18.709107 22.771633-40.002063 43.339064-63.431681 61.254086C771.216251 668.244786 765.082554 647.818571 758.297011 628.36245zM663.043576 482.213859c-34.249035-40.071647-74.383104-76.553537-120.404254-109.452831l242.683205 0C738.230999 404.395516 697.46862 440.877405 663.043576 482.213859z"  horiz-adv-x="1024" />

    
    <glyph glyph-name="qq2" unicode="&#58924;" d="M685.466 481.874 360.722 481.874 574.562 445.222 344.884 258.028 693.384 258.028 487.462 302.598ZM516.026 850C257.784 850 48.412 640.628 48.412 382.386c0-258.24 209.372-467.588 467.614-467.588 258.24 0 467.562 209.348 467.562 467.588C983.588 640.628 774.266 850 516.026 850zM820.026 466.136l-118.82-100.726 39.492-253.578c-7.918-7.894-8.112-7.894-16.078-7.894l-206.31 126.79L311.56 103.938c-15.836 0-17.464 0-17.464 7.894l28.442 253.578-125.332 110.926L154.36 506.748l-12.096 0 0 1.312 12.096-1.312 111.292 0 134.658 0 31.698 56.472 79.206 167.376c7.894 0 7.894 0 15.862 0l87.1-167.376 31.698-56.472 134.612 0 79.23 0c7.918 0 7.918 4.638 7.918-3.304L820.026 466.136z"  horiz-adv-x="1024" />

    
    <glyph glyph-name="fanhui4" unicode="&#58925;" d="M781.096421-83.941053 313.155368 384 781.096421 851.941053l-3.718737 3.718737C779.776 859.648 781.473684 864.067368 781.473684 869.052632c0 14.901895-12.045474 26.947368-26.947368 26.947368-5.012211 0-9.404632-1.697684-13.392842-4.069053l-3.718737 3.718737L242.903579 401.111579l3.718737-3.718737C244.224 393.404632 242.526316 388.985263 242.526316 384s1.697684-9.404632 4.069053-13.392842l-3.718737-3.718737 494.538105-494.538105 3.718737 3.718737C745.121684-126.302316 749.514105-128 754.526316-128c14.901895 0 26.947368 12.045474 26.947368 26.947368 0 5.012211-1.697684 9.404632-4.069053 13.392842L781.096421-83.941053z"  horiz-adv-x="1024" />

    
    <glyph glyph-name="lianxifangshi" unicode="&#58926;" d="M512 844.8c254.08 0 460.8-206.72 460.8-460.8s-206.72-460.8-460.8-460.8c-254.08 0-460.8 206.72-460.8 460.8S257.92 844.8 512 844.8M512 896C229.248 896 0 666.7776 0 384c0-282.8032 229.248-512 512-512 282.8032 0 512 229.1968 512 512C1024 666.7776 794.8032 896 512 896L512 896zM367.8976 645.2992c30.8992 5.8368 51.1488-29.0048 66.56-53.0432 15.0016-23.3472 33.4592-50.7392 26.0096-81.1264-4.1472-17.0496-19.5584-26.3424-31.2064-36.4032-11.4944-9.9328-29.0048-19.0464-33.2544-34.304-6.9376-24.7552 8.2432-50.7392 17.6384-65.536 21.3504-33.4336 47.1552-63.5648 80.1024-90.4704 15.9488-13.056 38.0928-30.4896 60.288-26.0096 33.152 6.7072 41.9072 47.5904 78.0032 53.0432 34.3552 5.1968 57.6-19.712 77.0048-36.4032 18.688-16.1536 48.8448-36.8384 46.7968-64.512-1.2032-15.8976-13.952-25.7536-25.0112-35.3536-11.2384-9.8048-21.0944-20.8128-32.2048-28.0576-26.9056-17.5616-59.904-26.1632-97.792-24.9856-37.1456 1.152-66.7392 13.7728-93.5936 28.0832-52.5056 28.0064-94.0032 67.4048-133.0944 111.3088-38.4512 43.1616-73.9584 94.2592-93.5936 150.7584-24.4992 70.5536-11.5456 143.0272 28.1088 188.2368 6.7072 7.68 17.3056 15.6928 27.008 23.936C345.344 632.7296 354.304 642.7392 367.8976 645.2992z"  horiz-adv-x="1024" />

    
    <glyph glyph-name="mail" unicode="&#58927;" d="M64.352 670.496l0-572.992 895.264 0 0 572.992L64.352 670.496zM814.944 604.512l-279.104-279.104c-12.704-12.768-34.944-12.736-47.68-0.032l-279.104 279.104L814.944 604.512zM128.416 602.4l220.96-221.024-221.568-221.568L128.416 602.4zM213.344 157.696l176.896 176.864 76.512-76.384c11.296-11.392 26.336-17.632 42.304-17.632 16 0 31.008 6.176 42.304 17.632l76.48 76.448 176.896-176.896L213.344 157.696 213.344 157.696zM897.344 157.696l-224.128 223.424 224.128 224.128L897.344 157.696z"  horiz-adv-x="1024" />

    
    <glyph glyph-name="youxiang" unicode="&#58928;" d="M885.216 687.872l-746.4 0c-41.344 0-75.008-33.632-75.008-75.072l0-457.728c0-41.44 33.664-75.008 75.008-75.008l746.4 0c41.536 0 75.008 33.568 75.008 75.008L960.224 612.8C960.192 654.24 926.72 687.872 885.216 687.872L885.216 687.872zM847.52 623.744l-280.864-249.056c-24.512-21.888-42.688-32.672-54.368-32.672s-29.856 10.816-54.336 32.672l-280.896 249.056L847.52 623.744 847.52 623.744zM129.152 179.488l0 396.672 222.976-195.584L129.152 179.488 129.152 179.488zM183.904 144.992l216.896 192.608 35.552-31.2c20.64-18.016 46.048-27.296 75.968-27.296 30.08 0 55.328 9.248 76.064 27.296l35.552 31.2 216.864-192.608L183.904 144.992 183.904 144.992zM895.488 179.488l-223.008 201.056 223.008 195.584L895.488 179.488 895.488 179.488z"  horiz-adv-x="1024" />

    
    <glyph glyph-name="weixin" unicode="&#58929;" d="M693.12 548.736c11.776 0 23.36-0.896 35.008-2.176-31.36 146.048-187.456 254.528-365.696 254.528C163.2 801.088 0 665.344 0 492.864c0-99.52 54.272-181.248 145.024-244.736L108.8 139.136l126.72 63.488c45.312-8.896 81.664-18.112 126.912-18.112 11.392 0 22.656 0.512 33.792 1.344-7.04 24.256-11.2 49.6-11.2 76.032C385.088 420.224 521.024 548.736 693.12 548.736zM498.304 646.976c27.392 0 45.376-17.984 45.376-45.248 0-27.136-17.984-45.312-45.376-45.312-27.072 0-54.336 18.176-54.336 45.312C443.968 629.056 471.168 646.976 498.304 646.976zM244.672 556.416c-27.2 0-54.592 18.176-54.592 45.312 0 27.264 27.392 45.248 54.592 45.248S289.92 629.056 289.92 601.728C289.92 574.592 271.872 556.416 244.672 556.416zM1024 266.24c0 144.896-145.024 262.976-307.904 262.976-172.48 0-308.224-118.144-308.224-262.976 0-145.28 135.808-262.976 308.224-262.976 36.096 0 72.512 9.024 108.736 18.112l99.392-54.528-27.264 90.624C969.728 112.128 1024 184.512 1024 266.24zM616.128 311.616c-17.984 0-36.224 17.92-36.224 36.224 0 18.048 18.24 36.224 36.224 36.224 27.52 0 45.376-18.176 45.376-36.224C661.504 329.536 643.648 311.616 616.128 311.616zM815.488 311.616c-17.856 0-36.032 17.92-36.032 36.224 0 18.048 18.112 36.224 36.032 36.224 27.264 0 45.376-18.176 45.376-36.224C860.864 329.536 842.752 311.616 815.488 311.616z"  horiz-adv-x="1024" />

    
    </font>
</defs>
</svg>
